<svg width="294" height="291" viewBox="0 0 294 291" fill="none" xmlns="http://www.w3.org/2000/svg">
<path fill-rule="evenodd" clip-rule="evenodd" d="M137.03 2.55001C137.057 5.13601 137.193 5.27201 138.134 3.65401C138.903 2.33001 138.895 1.49501 138.104 0.704013C137.299 -0.100987 137.008 0.399012 137.03 2.55001ZM167.75 0.662013C169.529 1.38001 169.301 2.69901 167 5.00001C165.517 6.48301 165.373 7.00001 166.441 7.00001C167.893 7.00001 169.456 5.25801 169.485 3.60901C169.507 2.28801 172.789 0.456012 173.629 1.29601C174.028 1.69401 173.487 2.71601 172.427 3.56501C170.538 5.08001 170.54 5.09201 172.5 4.19301C176.343 2.43201 180.225 1.82701 179.429 3.11401C178.963 3.86901 179.116 4.04601 179.845 3.59501C182.213 2.13301 180.985 0.844013 177.875 1.52701C175.702 2.00501 174.958 1.87701 175.434 1.10701C175.9 0.353013 174.586 0.0250129 171.309 0.0790129C168.664 0.122013 167.063 0.385013 167.75 0.662013ZM132.626 3.44801C131.744 4.79401 131.268 6.53601 131.569 7.31901C132.17 8.88601 131.49 9.63501 124.138 15.5C121.381 17.7 118.844 20.175 118.501 21C118.158 21.825 119.453 20.976 121.378 19.113C124.299 16.286 125.383 15.827 127.928 16.336C129.606 16.671 131.658 16.685 132.489 16.366C134.165 15.723 134.578 13 133 13C132.45 13 132 13.45 132 14C132 14.55 130.785 15 129.3 15C127.68 15 126.98 14.645 127.55 14.112C128.914 12.836 143.994 5.00001 145.085 5.00001C146.813 5.00001 145.999 6.69501 143.75 7.78001C142.19 8.53201 141.989 8.88501 143.095 8.93201C144.625 8.99701 148 6.06601 148 4.67101C148 4.30201 146.65 4.00001 145 4.00001C143.35 4.00001 142 4.47701 142 5.05901C142 5.64101 141.53 5.82801 140.956 5.47301C140.382 5.11801 139.257 5.37201 138.456 6.03601C137.655 6.70101 137 6.87901 137 6.43101C137 5.98401 136.334 6.49101 135.519 7.55901C134.238 9.23801 133.904 9.29701 133.045 8.00001C132.323 6.90901 132.457 6.41101 133.539 6.17401C134.356 5.99501 134.755 5.41301 134.426 4.88101C134.097 4.34801 134.372 3.25701 135.036 2.45601C135.738 1.61101 135.822 1.00001 135.237 1.00001C134.683 1.00001 133.508 2.10101 132.626 3.44801ZM160.368 4.57101C157.408 7.71001 155.686 11.807 157.75 10.801C162.597 8.44001 164 7.55001 164 6.83901C164 5.53901 162.834 5.84001 160.823 7.66101C158.035 10.184 157.767 8.77901 160.443 5.66501C162.069 3.77301 162.968 3.31801 163.326 4.20801C163.733 5.21401 164.082 5.16901 164.909 4.00001C167.982 -0.344987 164.604 0.0800114 160.368 4.57101ZM122.112 6.38001C120.626 7.96201 119.745 10.362 119.487 13.531C119.261 16.302 119.469 17.924 119.983 17.401C120.469 16.905 121.055 14.585 121.284 12.244C121.513 9.90301 122.513 7.09001 123.506 5.99401C126.069 3.16101 124.808 3.51101 122.112 6.38001ZM175.717 6.90101C174.736 7.78001 172.486 9.05201 170.717 9.72701L167.5 10.953L170.64 10.749C173.767 10.545 179 12.646 179 14.104C179 16.631 176.671 20.175 174.458 21.016C171.513 22.135 172.041 23.992 175.309 24.015C177.133 24.028 177.248 24.209 176 25.096C174.835 25.924 175.089 26.034 177.136 25.591C178.839 25.221 180.212 25.55 181.017 26.521C182.117 27.845 182.421 27.815 183.6 26.261C185.231 24.112 185.347 23 183.941 23C183.359 23 183.131 23.403 183.435 23.895C184.605 25.789 181.315 25.672 178.967 23.737L176.5 21.703L179.334 22.392C181.194 22.844 181.947 22.723 181.525 22.04C181.171 21.468 179.953 21 178.819 21C177.071 21 176.951 20.764 178.038 19.454C178.743 18.604 179.923 18.14 180.659 18.423C181.395 18.705 183.011 18.529 184.249 18.032C186.15 17.267 186.209 17.117 184.628 17.063C183.078 17.011 182.97 16.741 184 15.5C185.023 14.268 184.945 14 183.563 14C182.639 14 182.104 14.359 182.375 14.798C182.646 15.237 182.455 16.249 181.949 17.048C181.255 18.145 181.027 17.853 181.015 15.857C180.999 13.122 182.962 11.664 185.399 12.6C186.168 12.895 187.095 12.656 187.458 12.068C188.322 10.67 182.762 10.638 181.367 12.033C180.235 13.165 177 12.321 177 10.893C177 10.402 178.35 10 180 10C181.65 10 183 9.56401 183 9.03101C183 8.49901 182.325 8.32201 181.5 8.63801C180.675 8.95501 180 8.71601 180 8.10701C180 7.49801 181.125 7.00001 182.5 7.00001C183.875 7.00001 185 7.56301 185.001 8.25001C185.001 8.93801 186.126 9.56501 187.501 9.64401C190.71 9.82901 190.653 9.38001 187.25 7.66701C182.791 5.42101 177.74 5.08601 175.717 6.90101ZM178.183 8.21701C177.466 8.93401 177 8.99301 177 8.36701C177 7.03201 178.183 5.84901 178.85 6.51701C179.134 6.80101 178.834 7.56601 178.183 8.21701ZM124 9.50001C124 10.325 124.177 11 124.393 11C124.609 11 125.045 10.325 125.362 9.50001C125.678 8.67501 125.501 8.00001 124.969 8.00001C124.436 8.00001 124 8.67501 124 9.50001ZM204.25 10.689C205.213 10.941 206.787 10.941 207.75 10.689C208.713 10.438 207.925 10.232 206 10.232C204.075 10.232 203.287 10.438 204.25 10.689ZM92.709 11.624C91.487 12.846 91.936 15.761 93.434 16.336C94.383 16.7 94.736 17.933 94.478 19.976C94.263 21.674 94.468 22.829 94.933 22.541C96.329 21.679 96.76 15.155 95.387 15.682C93.735 16.316 92.544 14.056 93.845 12.755C94.605 11.995 95.409 12.092 96.62 13.092C98.098 14.312 98.26 14.3 97.834 13C97.306 11.385 93.87 10.463 92.709 11.624ZM136 12C134.895 12.714 135.553 12.969 138.5 12.969C141.447 12.969 142.105 12.714 141 12C140.175 11.467 139.05 11.031 138.5 11.031C137.95 11.031 136.825 11.467 136 12ZM149.5 13.516C147.85 14.895 146.95 15.964 147.5 15.893C148.05 15.822 148.838 15.873 149.25 16.007C149.662 16.14 150.338 16.345 150.75 16.461C153.38 17.203 155 18.402 155 19.607C155 20.373 155.436 21 155.969 21C156.501 21 156.69 21.788 156.387 22.75C155.929 24.206 156.108 24.166 157.453 22.512C158.901 20.731 158.909 20.407 157.534 19.402C155.456 17.881 155.605 17 157.941 17C159.009 17 160.125 16.607 160.421 16.128C160.718 15.648 159.507 15.257 157.73 15.259C155.954 15.26 153.375 15.193 152 15.109L149.5 14.956L152 13C153.375 11.924 154.05 11.037 153.5 11.027C152.95 11.018 151.15 12.138 149.5 13.516ZM200 12.059C200 12.641 200.45 12.84 201 12.5C201.55 12.16 202 11.684 202 11.441C202 11.198 201.55 11 201 11C200.45 11 200 11.477 200 12.059ZM210.365 11.698C210.749 12.082 210.036 12.966 208.781 13.663C207.375 14.443 207.075 14.931 208 14.933C209.948 14.937 213.162 12.495 212.318 11.651C211.96 11.293 211.217 11 210.667 11C210.117 11 209.981 11.314 210.365 11.698ZM122 14.059C122 14.641 122.45 14.84 123 14.5C123.55 14.16 124 13.684 124 13.441C124 13.198 123.55 13 123 13C122.45 13 122 13.477 122 14.059ZM141.575 15.059C140.516 16.127 138.716 17.036 137.575 17.079C136.353 17.125 136.049 17.377 136.835 17.691C138.278 18.267 145 15.041 145 13.773C145 12.487 143.609 13.009 141.575 15.059ZM157.54 13.935C157.206 14.476 158.653 14.715 160.981 14.502C163.192 14.299 165 14.521 165 14.994C165 15.466 165.563 16.046 166.25 16.281C166.938 16.516 166.515 16.547 165.311 16.351C164.107 16.154 162.843 16.444 162.502 16.996C161.938 17.91 162.804 18.127 168.303 18.447C169.294 18.505 170.475 19.151 170.928 19.883C171.452 20.732 171.98 20.842 172.384 20.187C172.733 19.623 171.337 17.775 169.281 16.08C165.527 12.986 158.878 11.77 157.54 13.935ZM200.5 13.736C199.4 14.014 197.6 14.91 196.5 15.728C194.615 17.13 194.673 17.173 197.5 16.468C199.15 16.057 201.213 15.75 202.083 15.786C202.954 15.821 203.667 15.209 203.667 14.425C203.667 13.641 203.404 13.052 203.083 13.116C202.762 13.18 201.6 13.459 200.5 13.736ZM102.157 17.315C100.702 20.856 100.691 21.709 102.122 20.278C102.739 19.661 103.976 19.389 104.872 19.672C105.912 20.002 106.09 19.884 105.366 19.344C104.742 18.88 104.025 17.6 103.773 16.5C103.368 14.732 103.18 14.827 102.157 17.315ZM106.5 16C106.84 16.55 107.316 17 107.559 17C107.802 17 108 16.55 108 16C108 15.45 107.523 15 106.941 15C106.359 15 106.16 15.45 106.5 16ZM188.458 19.582C189.891 22.343 193.783 25.55 194.65 24.683C194.937 24.396 194.233 23.66 193.086 23.046C191.939 22.432 191 21.27 191 20.465C191 18.005 194.979 18.825 198.077 21.923C199.685 23.531 201 24.276 201 23.578C201 21.718 197.903 19.24 194.75 18.578C186.372 16.817 186.974 16.721 188.458 19.582ZM201.046 17.863C202.447 18.333 204.866 19.898 206.422 21.34C207.978 22.783 209.614 23.738 210.057 23.465C210.501 23.191 211.611 23.987 212.524 25.233L214.185 27.5L213.525 25.25C211.921 19.78 219.065 24.464 221.562 30.519C222.71 33.302 223.967 34.901 224.887 34.747C225.728 34.607 226.677 35.58 227.084 37C227.765 39.375 227.806 39.388 227.9 37.253C227.957 35.973 226.444 33.283 224.384 31.003C219.388 25.473 221.419 25.984 228.006 31.915C231.009 34.618 233.811 36.617 234.233 36.356C234.655 36.095 235 36.359 235 36.941C235 37.523 235.454 38 236.008 38C237.825 38 234.595 33.994 231.766 32.739C228.738 31.396 227.269 29 229.472 29C230.248 29 231.197 28.49 231.583 27.866C232.074 27.071 231.267 26.885 228.892 27.242C225.453 27.76 218.894 25.256 217.413 22.86C216.982 22.162 217.124 21.958 217.765 22.355C218.356 22.72 219.518 22.339 220.348 21.509C222.256 19.601 223 19.599 223 21.5C223 22.325 223.436 23 223.969 23C224.501 23 224.678 22.325 224.362 21.5C223.62 19.568 224.97 19.59 227.777 21.557C230.389 23.386 230.814 22.339 228.25 20.392C225.94 18.638 220.899 18.652 217.49 20.421C215.984 21.202 214.058 21.576 213.212 21.251C212.112 20.829 211.886 21.066 212.423 22.08C212.836 22.861 212.347 22.542 211.337 21.371C209.621 19.382 207.641 18.626 201.125 17.473L198.5 17.008L201.046 17.863ZM144.507 18.989C144.157 19.555 144.558 19.723 145.448 19.382C147.18 18.717 147.497 18 146.059 18C145.541 18 144.843 18.445 144.507 18.989ZM125.5 20C123.79 20.735 123.754 20.87 125.25 20.93C126.213 20.968 127 21.302 127 21.671C127 22.04 126.213 23.231 125.25 24.317C123.558 26.226 123.571 26.254 125.632 25.173C127.639 24.122 129 21.997 129 19.918C129 18.825 128.189 18.844 125.5 20ZM85.6 22.399C86.35 24.355 84.211 25.42 82.456 23.964C81.597 23.251 81 23.172 81 23.771C81 25.138 83.645 26.073 85.5 25.362C87.141 24.732 87.595 21 86.031 21C85.499 21 85.304 21.629 85.6 22.399ZM97 22.5C96.315 23.325 95.216 24 94.558 24C93.899 24 91.52 25.575 89.271 27.5C84.463 31.615 84.024 31.735 84.686 28.75C85.07 27.018 84.804 27.187 83.531 29.483C81.708 32.771 80.03 34.476 75.432 37.716L72.364 39.877L72.808 36.688C73.052 34.935 73.695 32.943 74.238 32.263C75.641 30.502 74.41 28 72.138 28C69.554 28 68.588 30.888 70.476 32.973C72.908 35.661 72.268 38.532 68.367 42.433C64 46.8 64.255 47.951 68.756 44.188C74.446 39.429 81.02 34.895 84.118 33.593C85.778 32.895 87.091 32.009 87.036 31.624C86.905 30.706 92.513 26 93.739 26C94.261 26 95.996 24.876 97.594 23.501C99.193 22.127 99.993 21.002 99.372 21.001C98.752 21.001 97.685 21.675 97 22.5ZM118.855 23.483C116.165 26.318 114.098 26.885 116.055 24.25C116.77 23.288 116.15 23.718 114.677 25.206C113.205 26.695 112 28.134 112 28.404C112 29.645 118.196 26.559 119.544 24.647C120.74 22.949 121.234 22.784 121.903 23.857C122.493 24.802 122.957 24.878 123.434 24.107C123.81 23.498 123.615 23 123 23C122.385 23 122.16 22.55 122.5 22C123.729 20.011 121.155 21.058 118.855 23.483ZM142 22.809C142 24.801 144.917 29.224 144.968 27.309C144.986 26.654 144.511 25.816 143.913 25.446C143.315 25.077 143.048 23.925 143.319 22.887C143.591 21.849 143.405 21 142.906 21C142.408 21 142 21.814 142 22.809ZM162.25 22.162C164.091 22.835 165.909 22.835 167.75 22.162C170.171 21.278 169.841 21.158 165 21.158C160.159 21.158 159.829 21.278 162.25 22.162ZM194 22C194.825 22.533 195.95 22.969 196.5 22.969C197.05 22.969 196.825 22.533 196 22C195.175 21.467 194.05 21.031 193.5 21.031C192.95 21.031 193.175 21.467 194 22ZM131.459 24.067C130.383 25.808 131.608 26.177 132.98 24.524C133.769 23.574 133.845 23 133.181 23C132.597 23 131.821 23.48 131.459 24.067ZM138 24C138 24.55 138.477 25 139.059 25C139.641 25 139.84 24.55 139.5 24C139.16 23.45 138.684 23 138.441 23C138.198 23 138 23.45 138 24ZM103.25 24.718C101.189 25.457 101.838 26.665 104.25 26.579C105.547 26.534 106.394 27.029 106.25 27.75C106.112 28.438 106.45 29 107 29C107.55 29 108 28.341 108 27.535C108 25.82 105.053 24.072 103.25 24.718ZM152.962 26.233C152.069 27.405 150.258 28.25 148.637 28.25C146.918 28.25 146.207 28.607 146.78 29.18C148.75 31.15 155.772 27.633 154.845 25.142C154.655 24.633 153.808 25.124 152.962 26.233ZM137.98 27.524C137.284 28.362 136.968 29.301 137.276 29.61C137.585 29.919 138.34 29.233 138.954 28.086C140.264 25.638 139.778 25.358 137.98 27.524ZM164.171 27.334C161.121 28.364 160.9 28.712 161.533 31.479C161.914 33.141 162.204 35.625 162.178 37C162.147 38.67 162.358 39.002 162.816 38C163.894 35.636 166.582 35.767 167.776 38.242C168.384 39.504 168.895 39.869 168.932 39.071C168.97 38.285 167.388 36.165 165.417 34.36C163.446 32.555 162.123 30.61 162.476 30.039C163.431 28.494 165.021 28.781 164.405 30.387C164.096 31.193 165.155 32.686 166.936 33.955C168.621 35.155 170 35.732 170 35.237C170 34.743 168.875 33.736 167.5 33C164.448 31.366 164.401 30.855 167.145 29.142C169.023 27.969 169.214 28.001 168.676 29.401C167.87 31.502 169.941 31.463 171.488 29.347C172.153 28.438 173.215 28.015 173.848 28.406C175.552 29.459 175.246 31 173.333 31C172.417 31 171.933 31.266 172.258 31.591C172.583 31.917 173.836 31.869 175.042 31.487C177.185 30.807 177.192 30.748 175.364 28.92C172.984 26.539 168.435 25.895 164.171 27.334ZM102 29.031C102 29.564 102.675 30 103.5 30C104.325 30 105 29.823 105 29.607C105 29.391 104.325 28.955 103.5 28.638C102.675 28.322 102 28.499 102 29.031ZM131.645 29.518C132.013 30.477 130.579 32.684 127.745 35.518C125.28 37.983 123.617 40 124.05 40C125.808 40 128 38.718 128 37.691C128 37.088 129.401 35.15 131.112 33.384C132.824 31.618 133.923 29.684 133.553 29.086C132.534 27.437 130.981 27.788 131.645 29.518ZM189.281 33.779C193.702 38.247 195 40.244 195 42.579C195 44.241 195.54 46.14 196.2 46.8C197.894 48.494 200.675 48.29 201.393 46.418C202.329 43.978 202.055 43.301 200.92 45.25C200.359 46.212 199.278 47 198.518 47C196.689 47 195.314 42.729 196.965 42.178C197.695 41.935 196.236 39.777 193.386 36.884C190.74 34.198 188.92 32 189.342 32C191.207 32 201.923 40.182 202.52 42.061C202.89 43.23 203.757 43.924 204.493 43.641C205.214 43.364 206.105 43.438 206.472 43.806C206.84 44.173 208.571 44.511 210.32 44.556C212.069 44.601 214.4 44.971 215.5 45.378C216.6 45.785 215.925 45.248 214 44.186C212.075 43.124 209.056 42.349 207.292 42.464C205.527 42.579 204.296 42.33 204.556 41.909C204.816 41.489 203.011 39.696 200.546 37.926C198.081 36.155 196.301 34.323 196.591 33.853C196.881 33.384 196.304 32.995 195.309 32.988C194.314 32.981 191.542 31.856 189.148 30.488C186.754 29.12 184.518 28 184.179 28C183.84 28 186.136 30.601 189.281 33.779ZM74 30.5C74 31.333 73.111 32 72 32C70.008 32 69.399 30.934 70.667 29.667C71.885 28.449 74 28.978 74 30.5ZM90.5 32.765C91.05 33.169 91.545 34.063 91.6 34.75C91.826 37.57 92.061 38 93.378 38C95.398 38 97.13 35.502 96.41 33.627C96.015 32.596 94.634 32.006 92.643 32.015C90.914 32.024 89.95 32.361 90.5 32.765ZM118 34C117.411 35.1 117.24 36 117.62 36C117.999 36 117.495 36.9 116.5 38C115.505 39.1 115.155 40 115.723 40C117.217 40 119.273 37.251 118.597 36.157C118.281 35.645 118.741 34.63 119.619 33.901C120.971 32.779 121.429 32.866 122.598 34.465C123.358 35.504 124.273 36.06 124.632 35.701C125.653 34.68 122.96 32 120.913 32C119.899 32 118.589 32.9 118 34ZM136 33.059C136 33.641 136.45 33.84 137 33.5C137.55 33.16 138 32.684 138 32.441C138 32.198 137.55 32 137 32C136.45 32 136 32.477 136 33.059ZM204.008 33.49C203.236 34.42 201.78 34.789 200.136 34.47L197.5 33.958L200 35.211C201.375 35.901 203.095 37.035 203.821 37.732C205.65 39.487 206.516 39.327 205.011 37.513C203.543 35.744 204.355 33 206.346 33C207.121 33 208.276 33.627 208.912 34.394C209.809 35.475 209.673 36.185 208.302 37.555C207.118 38.739 207.001 39.166 207.946 38.851C210.59 37.97 211.491 35.349 209.749 33.606C207.741 31.598 205.614 31.555 204.008 33.49ZM95.771 34.813C95.992 35.476 95.247 36 94.083 36C92.006 36 91.383 34.95 92.688 33.646C93.614 32.719 95.284 33.351 95.771 34.813ZM147.813 33.683C148.534 33.972 149.397 33.936 149.729 33.604C150.061 33.272 149.471 33.036 148.417 33.079C147.252 33.127 147.015 33.364 147.813 33.683ZM131 36C129.389 37.26 129.034 37.938 130 37.907C132.322 37.833 134.474 36.629 134.75 35.25C135.102 33.489 133.903 33.729 131 36ZM141.5 35C139.3 35.394 138.492 35.78 139.705 35.858C140.917 35.936 143.034 37.125 144.409 38.5C145.784 39.875 147.717 40.993 148.705 40.985C150.075 40.974 149.908 40.666 148 39.685C146.424 38.874 145.529 37.586 145.579 36.2C145.623 34.99 145.623 34.064 145.579 34.142C145.536 34.22 143.7 34.606 141.5 35ZM151.333 37C151.333 38.602 151.708 39.68 152.167 39.397C152.625 39.114 153 38.035 153 37C153 35.965 152.625 34.886 152.167 34.603C151.708 34.32 151.333 35.398 151.333 37ZM221.254 35.375C221.508 37.309 228 43.008 228 41.297C228 40.77 226.921 39.76 225.602 39.054C224.283 38.348 222.709 36.81 222.106 35.635C221.173 33.821 221.045 33.782 221.254 35.375ZM176.025 36.022C174.113 36.472 172.166 36.603 171.698 36.313C171.23 36.024 170.994 37.073 171.173 38.644C171.445 41.023 171.965 41.5 174.284 41.5C175.816 41.5 177.391 41.983 177.784 42.573C178.44 43.557 181.566 45.206 183.167 45.414C184.825 45.628 185.305 47.196 183.971 48.039C182.809 48.774 182.973 48.973 184.75 48.985C186.043 48.993 187 48.391 187 47.568C187 45.885 181.875 42 179.655 42C178.81 42 177.84 41.55 177.5 41C177.14 40.418 178.137 40 179.882 40C183.278 40 184.801 38.397 183.054 36.663C182.16 35.776 182.04 35.916 182.548 37.25C183.114 38.736 182.633 38.988 179.357 38.921C177.236 38.878 176.167 38.58 176.982 38.26C178.74 37.57 181.506 34.955 180.321 35.102C179.87 35.159 177.936 35.573 176.025 36.022ZM230.22 36.981C230.9 38.07 232.131 39.22 232.955 39.536C233.779 39.852 233.373 38.961 232.052 37.556C229.174 34.492 228.542 34.293 230.22 36.981ZM80.2 39.2C79.54 39.86 79 40.93 79 41.578C79 42.225 78.325 43.315 77.5 44C75.713 45.483 75.504 49.668 77.188 50.229C77.842 50.447 74.38 54.507 69.494 59.252C64.609 63.996 60.249 67.654 59.806 67.38C59.363 67.106 58.993 67.696 58.984 68.691C58.975 69.686 57.62 72.075 55.973 74C54.326 75.925 52.059 78.578 50.935 79.895C47.875 83.484 44.62 90.145 44.416 93.236C44.317 94.741 44.584 95.757 45.011 95.493C46.232 94.738 47.23 100.17 46.081 101.319C45.374 102.026 44.584 101.275 43.564 98.925L42.078 95.5L42.175 101C42.229 104.025 42.467 105.487 42.706 104.25C42.944 103.013 43.588 102 44.137 102C44.69 102 44.843 102.92 44.48 104.063C43.888 105.93 44.02 106.004 45.873 104.847C46.999 104.144 47.526 103.325 47.043 103.027C46.561 102.729 47.509 100.516 49.15 98.109C51.012 95.378 51.78 93.38 51.194 92.794C50.607 92.207 50.011 92.821 49.608 94.427C49.253 95.842 48.52 97 47.981 97C46.188 97 46.963 91.476 49 89.732C50.1 88.79 51 87.398 51 86.639C51 85.879 52.572 84.187 54.493 82.879C56.414 81.571 57.989 80.107 57.993 79.628C58.001 78.64 56.038 80.013 51.105 84.448L47.709 87.5L49.605 84.179C50.647 82.353 53.052 79.203 54.949 77.179C56.846 75.156 58.336 73.247 58.261 72.938C58.067 72.135 72.83 56.931 77 53.641C80.119 51.18 80.31 50.772 78.75 49.89C76.423 48.574 76.534 46.308 79 44.768C80.1 44.081 81 42.754 81 41.818C81 39.341 82.871 38.582 84.813 40.272C85.741 41.079 87.094 41.525 87.821 41.263C88.669 40.957 88.181 40.288 86.457 39.393C83.166 37.686 81.757 37.643 80.2 39.2ZM91.33 41.771C92.83 43.462 92.95 44.224 91.999 46.002C91.36 47.195 91.024 48.357 91.251 48.584C91.478 48.811 92.281 47.843 93.036 46.433C94.511 43.677 93.618 41.021 90.929 40.163C89.929 39.845 90.049 40.327 91.33 41.771ZM110.562 41.185C109.496 41.804 107.054 42.251 105.136 42.179C102.674 42.086 101.96 42.36 102.71 43.11C103.395 43.795 105.854 43.909 109.636 43.43C112.861 43.022 114.935 42.495 114.244 42.258C113.553 42.022 113.242 41.418 113.553 40.915C114.313 39.685 112.933 39.81 110.562 41.185ZM117 41C115.827 41.758 116.086 41.973 118.191 41.985C119.671 41.993 121.16 41.55 121.5 41C122.289 39.723 118.976 39.723 117 41ZM164.506 42.006C165.504 43.11 166.527 43.806 166.78 43.554C167.321 43.012 164.471 40 163.416 40C163.017 40 163.507 40.903 164.506 42.006ZM123 43.418C123 45.684 124.127 48 125.229 48C125.815 48 125.718 47.365 125 46.5C124.007 45.303 124.007 44.697 125 43.5C126.02 42.271 125.951 42 124.622 42C123.73 42 123 42.638 123 43.418ZM127.5 43C127.84 43.55 128.316 44 128.559 44C128.802 44 129 43.55 129 43C129 42.45 128.523 42 127.941 42C127.359 42 127.16 42.45 127.5 43ZM168.651 43.468C168.341 44.275 168.518 45.202 169.044 45.527C169.57 45.852 170 45.191 170 44.059C170 41.644 169.444 41.401 168.651 43.468ZM53.559 45.51C51.305 47.24 52.224 47.486 55.13 45.931C56.615 45.136 57.538 45.2 58.727 46.181C60.074 47.292 60.248 47.264 59.834 46C59.164 43.953 55.917 43.7 53.559 45.51ZM172.5 46C173.495 47.1 174.69 48 175.155 48C176.653 48 176.052 45.234 174.418 44.607C171.435 43.462 170.692 44.002 172.5 46ZM237.311 44.913C234.458 45.26 231.848 45.819 231.512 46.155C231.176 46.491 232.995 46.529 235.554 46.241C238.751 45.881 240.456 46.119 241.002 47.004C241.44 47.712 242.519 48.015 243.399 47.677C245.279 46.956 245.579 43.935 243.75 44.141C243.063 44.218 240.165 44.566 237.311 44.913ZM47.571 46.571C46.512 47.346 45.839 48.172 46.075 48.408C46.31 48.644 47.37 48.203 48.429 47.429C49.488 46.654 50.161 45.828 49.925 45.592C49.69 45.356 48.63 45.797 47.571 46.571ZM83.473 46.044C83.118 46.618 83.376 47.748 84.047 48.556C84.978 49.678 85.591 49.754 86.645 48.88C87.689 48.014 87.748 47.401 86.89 46.367C85.534 44.733 84.352 44.622 83.473 46.044ZM244 46C244 46.55 243.55 47 243 47C242.45 47 242 46.55 242 46C242 45.45 242.45 45 243 45C243.55 45 244 45.45 244 46ZM61.228 48.75C61.069 50.856 61.248 51.149 61.995 50C63.173 48.187 63.295 46 62.218 46C61.788 46 61.343 47.237 61.228 48.75ZM128 47.059C128 47.641 128.45 47.84 129 47.5C129.55 47.16 130 46.684 130 46.441C130 46.198 129.55 46 129 46C128.45 46 128 46.477 128 47.059ZM217.497 53.127C221.624 57.047 225 60.617 225 61.06C225 61.503 224.1 62.151 223 62.5C221.9 62.849 221 63.644 221 64.267C221 65.073 221.346 65.054 222.2 64.2C222.86 63.54 224.162 63 225.093 63C226.024 63 227.045 62.325 227.362 61.5C228.15 59.446 232.766 59.557 233.177 61.64C233.364 62.591 234.664 63.403 236.268 63.574C237.796 63.736 238.777 63.449 238.459 62.934C238.142 62.42 237.234 62 236.441 62C235.648 62 234.1 61.1 233 60C230.639 57.639 229.534 57.509 227.789 59.389C226.708 60.555 225.32 59.588 219.174 53.389C215.145 49.325 211.431 46 210.921 46C210.411 46 213.37 49.207 217.497 53.127ZM219.575 47.871C220.634 48.9 221.677 49.586 221.893 49.395C222.523 48.838 219.857 46 218.703 46C218.124 46 218.516 46.842 219.575 47.871ZM56 49C56 50.289 56.506 50.998 57.25 50.75C57.938 50.521 58.5 49.733 58.5 49C58.5 48.267 57.938 47.479 57.25 47.25C56.506 47.002 56 47.711 56 49ZM207 47.941C207 48.459 207.45 49.16 208 49.5C209.419 50.377 209.242 53.752 207.75 54.253C206.774 54.581 206.811 55.256 207.919 57.336C208.699 58.801 209.802 60 210.369 60C210.983 60 210.915 59.515 210.2 58.8C208.683 57.283 208.642 54.286 210.132 53.789C210.913 53.529 210.75 52.417 209.606 50.206C207.947 46.997 207 46.174 207 47.941ZM225.75 49.833C226.713 50.842 227.677 51.528 227.893 51.357C228.483 50.892 225.886 48 224.878 48C224.395 48 224.787 48.825 225.75 49.833ZM235.015 50.028C235.612 51.143 236.515 51.8 237.022 51.486C237.529 51.173 239.176 51.723 240.683 52.708C242.19 53.694 243.076 53.938 242.652 53.25C242.085 52.329 243.017 51.973 246.191 51.898L250.5 51.795L247 50.913C245.075 50.428 242.56 50.239 241.412 50.494C240.263 50.749 238.463 50.306 237.412 49.51C234.702 47.46 233.75 47.665 235.015 50.028ZM44.752 51.204C44.414 52.086 44.382 53.744 44.681 54.889C44.98 56.033 44.926 57.752 44.559 58.707C43.986 60.2 43.752 60.237 42.892 58.972C42.087 57.787 41.959 57.89 42.233 59.5C42.42 60.6 41.881 62.091 41.036 62.813C39.877 63.803 39.807 64.254 40.75 64.646C41.438 64.932 42 65.804 42 66.583C42 67.362 42.477 68 43.059 68C43.641 68 43.88 67.615 43.589 67.144C43.298 66.674 44.201 66.507 45.594 66.773L48.127 67.258L45.581 69.915C44.181 71.377 42.746 74.019 42.393 75.786C41.714 79.182 40.011 80.218 39.985 77.25C39.972 75.754 39.828 75.718 39 77C37.734 78.958 37.734 80.282 39 79.5C39.55 79.16 40 79.359 40 79.941C40 81.327 38.306 81.304 37.442 79.907C37.071 79.306 36.745 76.943 36.717 74.657C36.69 72.371 36.477 71.585 36.243 72.912C35.957 74.537 35.567 74.918 35.048 74.078C34.595 73.345 34.324 74.099 34.389 75.914C34.45 77.609 34.8 78.996 35.167 78.998C35.533 78.999 36.24 80.221 36.738 81.713L37.642 84.427L40.001 81.713C41.299 80.221 43.292 78.948 44.43 78.884C45.908 78.801 46.039 78.645 44.886 78.337C42.112 77.596 44.027 71.898 47.936 69.264C52.168 66.412 53.827 66.409 54.969 69.25C55.466 70.487 55.902 70.86 55.937 70.079C55.971 69.297 55.268 67.849 54.374 66.861C53.105 65.459 52.318 65.295 50.788 66.113C48.416 67.383 47.517 66.7 48.43 64.321C48.987 62.87 49.262 62.806 49.976 63.961C50.632 65.023 51.195 64.528 52.28 61.933C53.069 60.045 53.518 58.276 53.276 58.002C52.571 57.202 50.009 61.205 50.606 62.172C50.905 62.655 50.778 62.943 50.324 62.812C49.871 62.682 48.481 63.14 47.235 63.831C44.092 65.573 43.224 63.114 45.666 59.387C47.48 56.619 48.478 50.586 46.968 51.52C46.529 51.791 45.99 51.47 45.769 50.807C45.507 50.02 45.154 50.157 44.752 51.204ZM65.011 53.958C64.425 56.135 63.508 58.186 62.973 58.517C62.438 58.847 62.014 59.654 62.032 60.309C62.049 60.964 62.988 60.26 64.119 58.745C65.3 57.161 66.669 56.286 67.337 56.687C67.977 57.07 67.852 56.586 67.06 55.611C65.913 54.198 65.864 53.448 66.819 51.919C67.495 50.836 67.594 50 67.047 50C66.514 50 65.598 51.781 65.011 53.958ZM70 50.893C71.269 51.778 71.296 52.268 70.174 54.078C69.072 55.855 69.072 56.143 70.174 55.775C71.992 55.169 71.854 50.763 70 50.257C68.667 49.893 68.667 49.964 70 50.893ZM92.079 51.281C91.976 53.598 89.383 54.563 87.487 52.989C86.286 51.992 86 52.037 86 53.225C86 54.033 84.987 55.183 83.75 55.78C82.138 56.557 81.962 56.884 83.128 56.932C84.023 56.97 85.277 56.371 85.914 55.603C86.552 54.835 87.876 54.416 88.857 54.673C90.925 55.214 93.429 52.663 92.673 50.784C92.354 49.989 92.128 50.178 92.079 51.281ZM221 51.882C221 52.432 221.45 53.16 222 53.5C222.55 53.84 223 53.668 223 53.118C223 52.568 222.55 51.84 222 51.5C221.45 51.16 221 51.332 221 51.882ZM251.459 52.067C251.096 52.653 251.07 53.403 251.4 53.733C251.73 54.063 252 53.822 252 53.198C252 52.574 252.675 52.322 253.5 52.638C254.325 52.955 255 52.716 255 52.107C255 50.692 252.327 50.661 251.459 52.067ZM48.667 52.667C48.3 53.033 48 53.798 48 54.367C48 54.993 48.466 54.934 49.183 54.217C49.834 53.566 50.134 52.801 49.85 52.517C49.566 52.233 49.033 52.3 48.667 52.667ZM56.5 53C56.16 53.55 56.359 54 56.941 54C57.523 54 58 53.55 58 53C58 52.45 57.802 52 57.559 52C57.316 52 56.84 52.45 56.5 53ZM37.39 54.427C37.088 55.212 37.009 56.9 37.214 58.177C37.488 59.886 37.721 59.509 38.093 56.75C38.616 52.868 38.339 51.952 37.39 54.427ZM237 53.882C237 54.432 237.45 55.16 238 55.5C238.55 55.84 239 55.668 239 55.118C239 54.568 238.55 53.84 238 53.5C237.45 53.16 237 53.332 237 53.882ZM40 54.882C40 55.432 40.45 56.16 41 56.5C41.55 56.84 42 56.668 42 56.118C42 55.568 41.55 54.84 41 54.5C40.45 54.16 40 54.332 40 54.882ZM212.789 56.986C212.44 59.359 212.618 59.732 213.677 58.853C215.193 57.595 215.418 55.377 214.112 54.569C213.624 54.267 213.028 55.355 212.789 56.986ZM244.796 57.062C245.19 59.747 247 61.339 247 59C247 58.45 247.392 58 247.871 58C249.154 58 256.54 65.925 256.262 67.004C256.131 67.512 256.591 67.71 257.284 67.445C259.021 66.778 266.074 75.448 266.507 78.782C266.701 80.277 267.353 82.625 267.956 84C268.951 86.27 269.009 86.156 268.589 82.75C268.334 80.688 268.276 79 268.459 79C268.642 79 270.188 81.177 271.896 83.838C274.096 87.267 275 89.887 275 92.838C275 95.236 275.473 97 276.117 97C276.768 97 277.034 95.959 276.755 94.5C276.492 93.125 276.665 92 277.139 92C277.612 92 278 92.439 278 92.976C278 93.513 278.948 95.425 280.106 97.226C281.265 99.027 281.954 99.713 281.638 98.75C281.303 97.73 281.571 96.991 282.281 96.978C282.952 96.966 282.577 96.178 281.448 95.228C279.552 93.631 274 85.674 274 84.553C274 84.283 274.749 84.35 275.664 84.701C276.783 85.131 277.091 84.957 276.605 84.17C276.207 83.526 275.275 83 274.534 83C273.334 83 265 74.001 265 72.705C265 72.42 266.012 72.409 267.25 72.68C269.058 73.077 269.205 72.963 268 72.102C267.175 71.513 265.88 71.024 265.122 71.015C264.363 71.007 260.749 68.175 257.09 64.723C253.43 61.271 249.07 57.474 247.4 56.285L244.364 54.123L244.796 57.062ZM239.605 58.17C240.11 58.986 239.75 59.12 238.414 58.611C236.954 58.054 236.776 58.159 237.663 59.054C238.302 59.698 239.315 59.923 239.913 59.554C241.305 58.693 241.324 57 239.941 57C239.359 57 239.207 57.526 239.605 58.17ZM255 60.025C255 60.561 255.421 61 255.935 61C256.449 61 258.137 61.523 259.685 62.161C261.233 62.8 262.821 63.256 263.214 63.173C263.607 63.091 263.655 63.806 263.322 64.762C262.757 66.382 262.836 66.388 264.476 64.846C266.606 62.845 265.712 60.985 262.7 61.153C261.49 61.221 259.262 60.775 257.75 60.163C256.057 59.478 255 59.425 255 60.025ZM45.89 62.25C44.715 64.488 44.72 64.49 46.854 62.595C49.238 60.479 49.456 60 48.035 60C47.505 60 46.539 61.013 45.89 62.25ZM38 62.167C38 62.625 38.423 63 38.941 63C39.459 63 40.114 62.625 40.397 62.167C40.68 61.708 40.257 61.333 39.456 61.333C38.655 61.333 38 61.708 38 62.167ZM247 61.882C247 62.432 247.45 63.16 248 63.5C248.55 63.84 249 63.668 249 63.118C249 62.568 248.55 61.84 248 61.5C247.45 61.16 247 61.332 247 61.882ZM60.667 62.667C60.3 63.033 60.014 64.046 60.03 64.917C60.055 66.217 60.251 66.174 61.122 64.675C62.199 62.823 61.887 61.447 60.667 62.667ZM67.582 66.551C64.877 68.397 61.952 70.668 61.082 71.596C60.212 72.524 61.609 71.868 64.188 70.137C66.946 68.285 69.131 67.403 69.497 67.995C69.838 68.548 70.654 68.993 71.309 68.985C72.042 68.975 71.939 68.614 71.04 68.046C69.79 67.255 69.848 66.825 71.445 65.061C73.873 62.378 73.465 62.535 67.582 66.551ZM33 64.618C33 65.168 33.661 66.491 34.468 67.559C35.276 68.626 35.936 69.05 35.936 68.5C35.936 67.95 35.276 66.626 34.468 65.559C33.661 64.491 33 64.068 33 64.618ZM75.204 67.045C74.532 68.12 74.389 69 74.885 69C75.782 69 77.328 65.995 76.736 65.402C76.564 65.231 75.875 65.97 75.204 67.045ZM229 66.927C229 68.358 229.642 69 231.073 69C232.504 69 233.043 68.461 232.812 67.261C232.31 64.655 229 64.364 229 66.927ZM249.333 66.456C249.333 67.257 249.708 67.68 250.167 67.397C250.625 67.114 251 66.459 251 65.941C251 65.423 250.625 65 250.167 65C249.708 65 249.333 65.655 249.333 66.456ZM221.032 66.595C221.089 68.232 223.795 71.14 224.38 70.193C224.695 69.684 224.063 68.462 222.976 67.479C221.889 66.495 221.014 66.097 221.032 66.595ZM237.34 67.25C236.912 67.938 236.703 69.591 236.875 70.924C237.083 72.53 236.397 73.974 234.844 75.2C233.555 76.217 233.161 76.926 233.968 76.775C234.942 76.593 235.655 77.678 236.086 80C236.444 81.925 236.796 83.078 236.868 82.563C236.941 82.048 238.35 82.919 240 84.5C243.925 88.26 243.887 86.822 239.953 82.696C237.388 80.006 236.994 78.946 237.464 76C237.772 74.075 238.011 71.263 237.996 69.75C237.961 66.306 238.822 66.285 241.718 69.656C242.973 71.116 244 71.87 244 71.33C244 70.276 239.783 66 238.745 66C238.4 66 237.768 66.563 237.34 67.25ZM31.158 70C31.158 71.375 31.385 71.938 31.662 71.25C31.94 70.563 31.94 69.438 31.662 68.75C31.385 68.063 31.158 68.625 31.158 70ZM41.116 69.668C41.052 70.311 40.709 71.661 40.353 72.668C39.851 74.089 39.984 74.244 40.947 73.356C41.629 72.727 41.973 71.377 41.71 70.356C41.447 69.335 41.18 69.026 41.116 69.668ZM87.299 70.663C86.641 72.378 86.396 89.528 86.866 101C87.012 104.575 86.886 114.025 86.585 122C85.863 141.118 85.837 200.17 86.55 200.883C88.283 202.617 88.692 196.162 88.339 172.658C87.911 144.177 88.315 141.453 92.274 146.131C93.498 147.578 96.829 151.403 99.674 154.631C106.574 162.457 119.269 179.007 128.607 192.35C134.102 200.203 136.502 202.898 137.293 202.107C138.085 201.315 137.659 200.252 135.751 198.257C134.301 196.74 130.727 192.012 127.808 187.749C120.385 176.91 105.401 157.411 100.162 151.773C94.693 145.888 95.062 144.071 101.697 144.216C104.339 144.274 107.873 143.608 109.552 142.737C113.486 140.696 119.923 133.694 123.54 127.522C126.165 123.042 126.388 121.858 126.442 112.085C126.5 101.482 125.925 96.564 124.052 91.636C123.501 90.186 123.289 89 123.581 89C124.521 89 121.116 84.633 116.491 79.906C109.867 73.137 100.509 69.019 91.719 69.006C89.111 69.002 87.739 69.516 87.299 70.663ZM151.325 70.154C151.631 70.895 152.613 73.975 153.509 77C154.404 80.025 155.404 83.175 155.731 84C156.447 85.804 159.774 97.116 161.027 102C161.521 103.925 162.817 109.1 163.908 113.5C166.492 123.922 167.456 127.444 169.382 133.5C173.082 145.129 176.311 157.079 178.029 165.5C179.588 173.137 181.47 180.428 186.788 199.435C188.636 206.041 191.147 202.191 192.941 190C193.791 184.224 197.267 167.313 199.005 160.5C201.264 151.643 204.505 133.894 205.396 125.5C205.687 122.75 206.892 115.775 208.074 110C209.255 104.225 210.422 98.375 210.666 97C210.911 95.625 212.023 89.609 213.137 83.632C214.445 76.618 214.82 72.42 214.195 71.795C212.726 70.326 212.28 71.679 210.494 83.043C209.589 88.794 207.981 97.55 206.92 102.5C205.859 107.45 204.09 117.439 202.989 124.698C201.153 136.795 199.429 146.139 196.843 158C196.304 160.475 195.481 164.75 195.014 167.5C193.439 176.789 189.822 192.495 189.077 193.281C188.294 194.108 186.843 189.061 179.075 158.5C176.418 148.05 173.495 137.356 172.578 134.735C171.661 132.114 169.383 124.014 167.515 116.735C164.159 103.648 159.168 85.65 155.25 72.5C154.758 70.85 153.549 69.345 152.563 69.154C151.376 68.926 150.958 69.264 151.325 70.154ZM256.5 70C256.84 70.55 257.316 71 257.559 71C257.802 71 258 70.55 258 70C258 69.45 257.523 69 256.941 69C256.359 69 256.16 69.45 256.5 70ZM49.291 73.689C48.081 75.51 47.413 77 47.805 77C48.198 77 49.092 76.083 49.792 74.961C50.492 73.84 51.47 73.172 51.964 73.478C53.361 74.341 53.929 72.628 52.64 71.439C51.805 70.669 50.886 71.286 49.291 73.689ZM98.5 72.359C101.25 73.094 105.311 74.621 107.525 75.753C112.639 78.368 120.723 86.959 121.556 90.664C121.907 92.224 122.598 95.075 123.091 97C124.391 102.07 124.203 119.427 122.813 122.703C120.634 127.839 113.55 136.32 109.054 139.176C105.159 141.65 103.647 142 96.847 142H89.085L89.075 109.75C89.069 92.012 89.325 76.037 89.644 74.25C90.302 70.555 91.104 70.384 98.5 72.359ZM45.981 73.523C44.924 74.796 44.986 74.943 46.359 74.416C47.261 74.069 48 73.384 48 72.893C48 71.607 47.421 71.788 45.981 73.523ZM223.225 73.174C223.5 73.998 225.392 74.533 228.221 74.587C231.719 74.653 232.514 74.395 231.653 73.474C230.824 72.586 230.075 72.561 228.767 73.378C227.446 74.202 226.467 74.148 224.891 73.164C223.143 72.073 222.858 72.074 223.225 73.174ZM271.569 75.077C272.78 76.415 273.59 76.73 273.845 75.964C274.135 75.094 274.464 75.133 275.067 76.108C275.52 76.842 276.186 77.148 276.546 76.788C277.766 75.568 275.843 73.915 273.916 74.527C272.845 74.867 272 74.664 272 74.067C272 73.48 271.48 73 270.845 73C270.204 73 270.527 73.925 271.569 75.077ZM32 75.5C32 76.325 32.436 77 32.969 77C33.501 77 33.678 76.325 33.362 75.5C33.045 74.675 32.609 74 32.393 74C32.177 74 32 74.675 32 75.5ZM259.211 76.279C259.446 79.116 260.401 79.778 261.559 77.904C261.932 77.301 261.505 76.077 260.611 75.183C259.111 73.682 259.003 73.766 259.211 76.279ZM26 77.535C26 79.787 26.231 79.947 28.065 78.965C29.716 78.082 29.892 77.574 28.942 76.43C27.152 74.273 26 74.706 26 77.535ZM50.667 75.667C50.3 76.033 50.014 77.046 50.03 77.917C50.055 79.217 50.251 79.174 51.122 77.675C52.199 75.823 51.887 74.447 50.667 75.667ZM58.5 76C58.16 76.55 58.359 77 58.941 77C59.523 77 60 76.55 60 76C60 75.45 59.802 75 59.559 75C59.316 75 58.84 75.45 58.5 76ZM62.5 76C62.84 76.55 63.316 77 63.559 77C63.802 77 64 76.55 64 76C64 75.45 63.523 75 62.941 75C62.359 75 62.16 75.45 62.5 76ZM238.658 77.551C238.964 78.348 239.616 79 240.107 79C241.545 79 241.133 77.265 239.551 76.658C238.582 76.286 238.286 76.582 238.658 77.551ZM246.729 76.604C246.328 77.005 246.045 78.721 246.1 80.417C246.196 83.385 246.228 83.407 246.962 81C247.62 78.844 247.827 78.741 248.469 80.25C248.879 81.213 249.686 82 250.262 82C250.838 82 250.624 81.213 249.785 80.25C248.947 79.287 248.08 77.909 247.86 77.188C247.639 76.466 247.13 76.203 246.729 76.604ZM19.636 77.78C18.58 79.488 21.339 80.975 22.74 79.453C23.521 78.605 23.613 77.879 22.99 77.494C22.446 77.157 21.993 77.471 21.985 78.191C21.972 79.234 21.795 79.224 21.11 78.143C20.587 77.319 20.009 77.176 19.636 77.78ZM251.5 78C251.84 78.55 252.692 79 253.392 79C254.093 79 256.429 80.596 258.583 82.546C261.831 85.486 262.094 85.98 260.125 85.439C258.514 84.996 257.97 85.142 258.434 85.893C258.81 86.502 259.711 87 260.437 87C262.033 87 263.525 88.749 264.419 91.667C264.989 93.53 264.76 93.763 262.791 93.33C260.958 92.927 260.8 93.041 262 93.898C263.421 94.913 267 95.431 267 94.622C267 92.902 263.41 86.398 260.854 83.486C257.164 79.284 249.524 74.803 251.5 78ZM62.5 80C62.16 80.55 62.359 81 62.941 81C63.523 81 64 80.55 64 80C64 79.45 63.802 79 63.559 79C63.316 79 62.84 79.45 62.5 80ZM231.459 80.067C231.096 80.653 231.014 81.348 231.276 81.61C231.538 81.872 232.019 81.392 232.345 80.543C233.021 78.781 232.445 78.471 231.459 80.067ZM241 80.882C241 81.432 241.45 82.16 242 82.5C242.55 82.84 243 82.668 243 82.118C243 81.568 242.55 80.84 242 80.5C241.45 80.16 241 80.332 241 80.882ZM23.639 83.109C22.673 84.236 22.036 85.91 22.223 86.829C22.462 88.007 23.07 87.494 24.285 85.088C26.326 81.046 26.072 80.267 23.639 83.109ZM31.564 83.293C31.94 84.279 32.499 84.834 32.807 84.526C33.115 84.219 32.808 83.412 32.124 82.733C31.136 81.753 31.022 81.868 31.564 83.293ZM251.371 83.704C251.759 84.092 253.296 84.553 254.788 84.728C256.88 84.974 257.157 84.817 256 84.039C254.312 82.904 250.279 82.613 251.371 83.704ZM26.261 87.842C23.793 90.63 22.815 91.183 22.15 90.166C21.452 89.099 21.151 89.165 20.639 90.498C19.762 92.783 19.817 93.005 21.25 92.968C22.552 92.935 26.135 89.959 29.405 86.194C30.453 84.987 30.903 84.041 30.405 84.092C29.907 84.142 28.043 85.829 26.261 87.842ZM56 85C56 85.55 56.421 86 56.937 86C57.452 86 58.055 87.463 58.277 89.25C58.626 92.067 58.701 91.934 58.84 88.25C58.96 85.068 58.623 84 57.5 84C56.675 84 56 84.45 56 85ZM229.805 86.872C229.574 88.451 229.716 90.589 230.122 91.622C230.608 92.859 230.883 91.879 230.93 88.75C231.008 83.439 230.447 82.501 229.805 86.872ZM52.923 85.25C52.881 85.388 52.768 86.927 52.673 88.671C52.506 91.737 52.557 91.779 54.25 89.962C56.248 87.817 56.564 86.533 54.83 87.605C54.043 88.091 53.869 87.783 54.299 86.664C54.65 85.749 54.501 85 53.969 85C53.436 85 52.965 85.112 52.923 85.25ZM278.749 87.148C279.163 88.731 279.502 88.833 280.809 87.771C282.156 86.677 282.27 86.779 281.628 88.5C281.058 90.026 281.159 90.224 282.054 89.337C283.483 87.919 282.68 86.411 280.142 85.747C278.679 85.365 278.365 85.681 278.749 87.148ZM255.159 89.742C257.442 93.879 258.491 94.776 259.26 93.25C259.467 92.838 258.103 90.925 256.227 89L252.817 85.5L255.159 89.742ZM246.714 89.016C247.004 90.124 247.714 91.323 248.291 91.68C248.95 92.087 249.091 91.68 248.67 90.582C248.301 89.622 248 88.423 248 87.918C248 87.413 247.592 87 247.094 87C246.595 87 246.424 87.907 246.714 89.016ZM267.01 88.488C266.006 89.698 266.095 90.099 267.488 90.634C269.237 91.305 271.294 89.284 270.375 87.798C269.625 86.584 268.378 86.839 267.01 88.488ZM14.5 89C13.778 90.167 14.712 92 16.028 92C16.528 92 16.65 91.251 16.299 90.336C15.869 89.217 16.043 88.909 16.83 89.395C17.474 89.793 18 89.641 18 89.059C18 87.716 15.322 87.671 14.5 89ZM33.803 93.846C30.808 97.081 27.598 101.328 26.67 103.282C24.418 108.029 23.589 114.921 24.901 118C25.82 120.156 25.922 119.84 25.643 115.704C25.382 111.84 25.602 111.017 26.771 111.466C27.83 111.872 28.037 111.546 27.537 110.261C26.582 107.807 26.582 107.819 27.444 104.75C27.869 103.237 28.618 102 29.108 102C29.599 102 30 101.372 30 100.605C30 99.838 32.062 97.027 34.583 94.358C38.965 89.719 39.228 89.591 40.583 91.444C41.362 92.51 42 93.773 42 94.25C42 94.727 42.45 94.84 43 94.5C43.55 94.16 44 93.432 44 92.882C44 92.332 43.55 92.16 43 92.5C42.45 92.84 42 92.472 42 91.681C42 90.891 41.381 89.731 40.625 89.104C39.533 88.197 38.13 89.172 33.803 93.846ZM238.952 90.449C241.569 93.234 241.14 96.365 238.288 95.296C236.705 94.703 236.661 94.823 237.901 96.348C239.129 97.856 239.028 98.325 237.085 100.135C235.866 101.271 235.101 102.434 235.386 102.72C236.15 103.484 238.606 100.763 241.002 96.496L243.109 92.745L240.88 90.372C239.654 89.068 238.201 88 237.651 88C237.101 88 237.687 89.102 238.952 90.449ZM36.524 94.925C36.162 96.066 35.558 97.002 35.183 97.004C34.807 97.007 34.419 98.582 34.321 100.504C34.223 102.427 34.283 104 34.456 104C35.056 104 38.11 93.776 37.648 93.314C37.392 93.059 36.886 93.783 36.524 94.925ZM56.531 94.901C56.173 96.03 54.22 98.341 52.19 100.038C49.387 102.381 49.105 102.855 51.018 102.006C53.642 100.843 58.699 94.366 57.736 93.402C57.431 93.098 56.89 93.773 56.531 94.901ZM249.048 94.636C248.986 97.41 251.602 102.528 252.195 100.791C252.437 100.081 251.839 97.925 250.866 96C249.457 93.214 249.086 92.936 249.048 94.636ZM18.547 95.882C18.019 97.525 17.544 97.88 17.016 97.026C16.592 96.34 16.298 97.58 16.356 99.81C16.464 103.924 18 104.7 18 100.641C18 99.408 18.501 97.899 19.113 97.287C19.724 96.676 20.02 95.573 19.769 94.838C19.488 94.012 19.02 94.411 18.547 95.882ZM231.037 96C231.066 97.635 233.748 101.619 234.353 100.927C234.559 100.692 233.891 99.15 232.869 97.5C231.847 95.85 231.022 95.175 231.037 96ZM259 96C259 96.55 259.477 97 260.059 97C260.641 97 260.84 96.55 260.5 96C260.16 95.45 259.684 95 259.441 95C259.198 95 259 95.45 259 96ZM23.325 98.595C22.989 99.472 20.753 102.122 18.357 104.485C14.143 108.638 12.927 111 15 111C15.55 111 16 110.416 16 109.703C16 108.202 23.099 101 24.578 101C25.124 101 25.571 100.1 25.571 99C25.571 96.607 24.184 96.357 23.325 98.595ZM285.63 99.143C286.53 100.139 287.681 100.697 288.186 100.385C289.733 99.429 288.514 97.667 286.189 97.495C284.131 97.344 284.095 97.448 285.63 99.143ZM261.047 98.5C261.023 99.986 262.808 102.526 263.435 101.898C263.735 101.599 263.323 100.487 262.521 99.427C261.72 98.367 261.056 97.95 261.047 98.5ZM265.757 99.738C265.539 100.707 265.719 102.513 266.156 103.75C266.629 105.088 266.555 106 265.975 106C265.439 106 265 105.325 265 104.5C265 103.675 264.498 103 263.885 103C263.214 103 263.443 104.027 264.461 105.581C265.391 107 265.907 108.8 265.607 109.581C265.289 110.409 265.674 111 266.531 111C267.658 111 268 109.617 268 105.059C268 99.38 266.587 96.029 265.757 99.738ZM8.56601 101.893C8.19001 102.502 8.35901 103 8.94101 103C9.52301 103 10.007 103.787 10.015 104.75C10.024 105.713 10.494 107.175 11.06 108C11.876 109.189 12.035 108.982 11.825 107C11.68 105.625 11.893 103.969 12.297 103.319C12.702 102.67 12.575 101.856 12.016 101.51C11.457 101.165 10.993 101.471 10.985 102.191C10.972 103.234 10.795 103.224 10.11 102.143C9.51001 101.197 9.04301 101.122 8.56601 101.893ZM254.12 102.644C255.333 104.106 255.235 104.209 253.242 103.577C251.875 103.143 251 103.282 251 103.933C251 104.52 251.589 105 252.309 105C254.219 105 257.62 107.713 256.773 108.561C256.374 108.959 255.311 108.673 254.409 107.924C252.976 106.735 252.817 106.812 253.148 108.532C253.357 109.614 253.971 110.516 254.514 110.535C259.023 110.697 262.773 116.373 260.256 119.226C258.437 121.288 257 120.667 257 117.819C257 116.083 257.242 115.956 258.524 117.02C259.362 117.716 260.249 118.085 260.493 117.84C260.738 117.595 259.602 116.606 257.969 115.641C255.285 114.055 255 114.042 255 115.509C255 119.307 258.83 123.838 260.23 121.697C260.667 121.028 260.899 122.032 260.756 123.971C260.598 126.121 259.549 128.356 258 129.845C256.625 131.168 256.324 131.658 257.331 130.935C258.806 129.876 259.552 129.864 261.165 130.871C262.883 131.944 263.045 131.903 262.305 130.581C261.831 129.734 261.619 127.201 261.833 124.952C262.21 121 262.282 120.926 263.976 122.744C266.143 125.07 268.498 129.243 268.212 130.25C268.096 130.662 268.413 131 268.918 131C269.423 131 270.661 131.263 271.668 131.584C273.215 132.077 273.165 131.869 271.348 130.253C266.857 126.257 260.6 110.633 263.151 109.783C263.629 109.624 263.05 108.888 261.865 108.148C259.962 106.959 259.784 106.995 260.344 108.453C260.715 109.421 260.568 109.851 259.989 109.493C259.445 109.157 259 109.385 259 110C259 110.615 258.502 110.81 257.893 110.434C257.204 110.008 257.153 109.514 257.757 109.125C259.228 108.177 255.589 101 253.637 101C253.152 101 253.369 101.74 254.12 102.644ZM276.109 102.369C275.218 103.443 275.199 104.005 276.039 104.524C277.669 105.532 279.693 103.293 278.358 101.958C277.634 101.234 276.946 101.36 276.109 102.369ZM282.507 103.351C282.594 104.533 283.415 105.645 284.332 105.823C286.572 106.258 286.459 103.768 284.175 102.341C282.611 101.364 282.372 101.509 282.507 103.351ZM30.054 103.5C30.059 104.05 30.715 105.36 31.51 106.412C32.36 107.534 32.726 109.392 32.398 110.912C31.962 112.929 32.073 113.169 32.904 112C34.462 109.807 34.205 107.819 32 105C30.924 103.625 30.049 102.95 30.054 103.5ZM41.444 109.444C40.501 110.884 39.979 112.312 40.285 112.618C40.59 112.924 41.612 111.995 42.556 110.556C43.499 109.116 44.021 107.688 43.715 107.382C43.41 107.076 42.388 108.005 41.444 109.444ZM249.607 108.582C248.753 110.808 248.851 116.79 249.75 117.345C250.163 117.6 250.5 115.377 250.5 112.405C250.5 109.432 250.436 107 250.357 107C250.278 107 249.941 107.712 249.607 108.582ZM12.375 118.35C12.306 122.833 12.57 125.617 12.962 124.538C13.965 121.777 14.169 112.729 13.259 111.35C12.841 110.718 12.444 113.868 12.375 118.35ZM19.292 112.75C18.937 113.713 17.595 116.188 16.311 118.25C15.026 120.313 14.327 122 14.758 122C15.189 122 16.648 119.975 18 117.5C19.352 115.025 20.805 113 21.229 113C21.653 113 22 112.55 22 112C22 110.326 19.98 110.885 19.292 112.75ZM272 113.3C272 114.235 272.752 115 273.671 115C274.59 115 276.141 115.723 277.117 116.606C278.764 118.097 278.88 118.061 278.733 116.106C278.626 114.688 277.893 114 276.487 114C275.339 114 273.86 113.46 273.2 112.8C272.267 111.867 272 111.978 272 113.3ZM28 114.933C28 115.455 28.45 116.16 29 116.5C29.55 116.84 30.032 118.779 30.07 120.809C30.127 123.784 30.307 124.112 31 122.5C32.45 119.125 32.094 116.54 30 115.232C28.9 114.545 28 114.41 28 114.933ZM38.564 115.707C38.022 117.132 38.136 117.247 39.124 116.267C39.808 115.588 40.115 114.781 39.807 114.474C39.499 114.166 38.94 114.721 38.564 115.707ZM284.687 117.886C286.234 119.473 287.689 120.596 287.921 120.382C288.502 119.843 283.86 115 282.763 115C282.274 115 283.14 116.299 284.687 117.886ZM5.54601 116.925C5.23201 117.434 5.53301 119.076 6.21601 120.575L7.45701 123.299L8.06101 120.9C9.01201 117.12 7.19801 114.253 5.54601 116.925ZM47.25 116.723C46.563 116.967 46 117.565 46 118.052C46 118.539 46.675 118.678 47.5 118.362C49.49 117.598 49.472 120.363 47.476 122.02C46.638 122.716 46.158 123.491 46.41 123.744C46.663 123.996 47.976 123.144 49.329 121.851C51.608 119.673 51.668 119.382 50.144 117.89C49.24 117.004 47.938 116.479 47.25 116.723ZM53 116.969C53 117.501 53.675 117.678 54.5 117.362C55.325 117.045 56 116.609 56 116.393C56 116.177 55.325 116 54.5 116C53.675 116 53 116.436 53 116.969ZM274.5 118C274.84 118.55 275.316 119 275.559 119C275.802 119 276 118.55 276 118C276 117.45 275.523 117 274.941 117C274.359 117 274.16 117.45 274.5 118ZM34.997 121.25C33.525 123.261 33.283 123.96 34.363 123.082C36.003 121.751 38.483 118 37.723 118C37.532 118 36.305 119.463 34.997 121.25ZM40.906 120.345C38.679 122.196 38.377 123.102 38.764 126.769C39.051 129.491 38.722 131.631 37.857 132.675C36.64 134.144 36.435 134.014 35.868 131.406C35.273 128.67 35.23 128.719 35.118 132.25C35.053 134.313 35.364 136 35.809 136C36.254 136 38.667 133.628 41.17 130.729C45.025 126.263 45.648 124.961 45.245 122.216C44.627 118.005 44.031 117.748 40.906 120.345ZM271.636 118.78C271.298 119.326 271.692 120.329 272.511 121.009C274.137 122.359 274.476 121.3 273.11 119.143C272.587 118.319 272.009 118.176 271.636 118.78ZM55.116 119.668C55.052 120.311 54.709 121.661 54.353 122.668C53.851 124.089 53.984 124.244 54.947 123.356C55.629 122.727 55.973 121.377 55.71 120.356C55.447 119.335 55.18 119.026 55.116 119.668ZM42.08 127.364L40 129.444V125.772C40 123.318 40.581 121.771 41.75 121.11C44.48 119.566 44.75 124.694 42.08 127.364ZM251 121C251 121.55 251.477 122 252.059 122C252.641 122 252.84 121.55 252.5 121C252.16 120.45 251.684 120 251.441 120C251.198 120 251 120.45 251 121ZM276 120.882C276 121.432 276.45 122.16 277 122.5C277.55 122.84 278 122.668 278 122.118C278 121.568 277.55 120.84 277 120.5C276.45 120.16 276 120.332 276 120.882ZM26.564 122.293C26.94 123.279 27.499 123.834 27.807 123.526C28.115 123.219 27.808 122.412 27.124 121.733C26.136 120.753 26.022 120.868 26.564 122.293ZM253.015 123.55C252.995 124.958 255.112 127 256.593 127C257.249 127 258.056 126.296 258.387 125.435C258.856 124.211 258.524 124.016 256.869 124.542C255.542 124.963 254.429 124.707 253.89 123.857C253.418 123.111 253.024 122.972 253.015 123.55ZM272.232 126C272.232 127.925 272.438 128.713 272.689 127.75C272.941 126.787 272.941 125.213 272.689 124.25C272.438 123.287 272.232 124.075 272.232 126ZM274.81 128.037C274.605 131.656 274.09 133.42 273.286 133.262C272.584 133.124 272.313 133.652 272.643 134.512C273.536 136.84 274.496 136.283 275.799 132.679C277.228 128.727 277.305 126.03 276.044 124.037C275.397 123.014 275.026 124.216 274.81 128.037ZM8.01501 124.691C8.02401 125.136 8.46701 126.175 9.00001 127C9.83501 128.293 9.97101 128.266 9.98501 126.809C9.99301 125.879 9.55001 124.84 9.00001 124.5C8.45001 124.16 8.00701 124.246 8.01501 124.691ZM36.667 124.667C36.3 125.033 36.014 126.046 36.03 126.917C36.055 128.217 36.251 128.174 37.122 126.675C38.199 124.823 37.887 123.447 36.667 124.667ZM28.564 126.293C28.94 127.279 29.499 127.834 29.807 127.526C30.115 127.219 29.808 126.412 29.124 125.733C28.136 124.753 28.022 124.868 28.564 126.293ZM49.273 129.594C46.949 132.017 45.387 134 45.802 134C46.878 134 54 126.951 54 125.886C54 124.663 54.016 124.651 49.273 129.594ZM279.03 126.3C279.014 127.289 278.332 129.392 277.515 130.971C276.37 133.184 276.313 133.958 277.265 134.345C278.229 134.738 278.216 135.048 277.207 135.76C276.186 136.479 276.337 137.18 277.923 139.086C280.089 141.686 280.644 141.072 278.965 137.934C278.251 136.601 278.251 136 278.965 136C279.534 136 280.014 134.313 280.03 132.25C280.053 129.426 280.293 128.897 281.001 130.109C281.573 131.087 281.588 132.949 281.04 134.859C280.491 136.775 280.502 138 281.07 138C281.581 138 282 137.1 282 136C282 134.9 282.45 134 283 134C283.55 134 284 135.548 284 137.441C284 139.334 284.526 141.207 285.17 141.605C285.957 142.091 286.131 141.783 285.701 140.664C285.35 139.749 285.499 139 286.031 139C286.564 139 287 139.661 287 140.469C287 141.301 287.593 141.71 288.369 141.412C289.203 141.092 289.968 141.77 290.329 143.15C291.147 146.276 290.395 146.657 287.837 144.411C285.74 142.569 285.686 142.568 286.345 144.371C286.909 145.911 286.653 146.142 284.891 145.682C282.63 145.091 276.973 148.515 277.033 150.438C277.052 151.022 277.927 152.532 278.978 153.793C280.606 155.745 281.382 155.959 284.195 155.234C286.558 154.625 287.595 153.726 287.834 152.08C288.038 150.676 287.762 150.029 287.128 150.421C286.556 150.775 286.32 151.67 286.604 152.41C286.949 153.309 286.106 153.904 284.061 154.204C281.736 154.546 280.669 154.143 279.608 152.525C278.354 150.611 278.463 150.157 280.686 148.017C282.195 146.565 283.42 146.039 283.829 146.668C284.623 147.886 288.149 148.05 287.397 146.833C287.114 146.375 287.332 146 287.882 146C288.432 146 289.16 146.45 289.5 147C290.558 148.712 292 148.098 292 145.934C292 143.095 290.238 139.936 287.122 137.189C285.342 135.621 284.904 134.71 285.756 134.354C286.447 134.065 286.728 133.37 286.381 132.808C285.981 132.16 285.399 132.283 284.791 133.143C284.134 134.073 284.008 133.477 284.391 131.25C284.861 128.515 284.645 128 283.025 128C281.966 128 280.641 127.213 280.08 126.25C279.117 124.596 279.059 124.599 279.03 126.3ZM16.872 126.167C16.802 126.35 16.641 127.454 16.515 128.619C16.338 130.257 16.718 130.625 18.191 130.24C20.25 129.701 20.291 126.929 18.25 126.25C17.563 126.021 16.943 125.983 16.872 126.167ZM264.331 127.5C264.636 128.6 265.201 131.727 265.586 134.448C266.022 137.525 267.178 140.358 268.643 141.938C271.512 145.032 271.743 143.852 269.018 140.025C267.927 138.494 266.775 135.049 266.456 132.37C266.138 129.692 265.404 127.05 264.826 126.5C264.102 125.811 263.948 126.123 264.331 127.5ZM287.275 130C287.192 131.1 287.573 132 288.121 132C288.669 132 288.84 131.55 288.5 131C287.635 129.6 289.349 129.749 290.8 131.2C292.489 132.889 292.291 134 290.3 134C289.131 134 288.922 134.322 289.633 135.033C290.707 136.107 294 135.351 294 134.029C294 133.106 288.984 128 288.076 128C287.718 128 287.358 128.9 287.275 130ZM10.5 130C10.84 130.55 11.316 131 11.559 131C11.802 131 12 130.55 12 130C12 129.45 11.523 129 10.941 129C10.359 129 10.16 129.45 10.5 130ZM3.66701 132.667C2.63101 133.703 2.87601 134.738 4.28601 135.279C5.05301 135.574 5.57101 135.013 5.57101 133.886C5.57101 131.952 4.84601 131.487 3.66701 132.667ZM13.652 134.666C12.635 136.025 12.012 137.345 12.266 137.6C12.521 137.854 13.501 136.884 14.444 135.444C16.667 132.052 16.056 131.452 13.652 134.666ZM256.638 134.5C256.955 135.325 257.671 136 258.229 136C258.815 136 258.718 135.365 258 134.5C257.315 133.675 256.599 133 256.409 133C256.219 133 256.322 133.675 256.638 134.5ZM261 134.5C260.282 135.365 260.185 136 260.771 136C261.329 136 262.045 135.325 262.362 134.5C262.678 133.675 262.781 133 262.591 133C262.401 133 261.685 133.675 261 134.5ZM40.5 135C39.181 135.567 39.011 135.878 40 135.914C40.825 135.945 42.175 135.533 43 135C44.828 133.819 43.249 133.819 40.5 135ZM269 135C269 135.55 269.477 136 270.059 136C270.641 136 270.84 135.55 270.5 135C270.16 134.45 269.684 134 269.441 134C269.198 134 269 134.45 269 135ZM18.981 137.523C17.924 138.796 17.986 138.943 19.359 138.416C20.261 138.069 21 137.384 21 136.893C21 135.607 20.421 135.788 18.981 137.523ZM26.383 137.414C25.544 138.328 25.853 139.155 27.624 140.732L29.983 142.833L32.169 139.667L34.355 136.5L31.704 138.9C29.028 141.321 28.957 141.293 27.829 137.349C27.587 136.501 27.205 136.519 26.383 137.414ZM6.03201 137.406C5.98701 138.668 11.096 145.238 11.673 144.661C11.931 144.402 11.445 143.36 10.591 142.345C9.73701 141.33 8.36901 139.6 7.55101 138.5C6.73301 137.4 6.04901 136.908 6.03201 137.406ZM262.787 140C262.275 143.489 263.482 144.061 264.37 140.75C265.194 137.675 265.148 137 264.113 137C263.626 137 263.029 138.35 262.787 140ZM35.75 141.392C33.847 142.837 33.396 146.509 35 147.5C35.55 147.84 36.032 149.779 36.07 151.809C36.109 153.839 36.527 156.4 37 157.5C37.652 159.018 37.876 158.391 37.93 154.905C37.98 151.643 38.58 149.785 40 148.5C42.466 146.268 42.576 143.158 40.25 141.392C38.088 139.751 37.912 139.751 35.75 141.392ZM40.506 143.009C41.581 144.75 39.95 148 38 148C36.05 148 34.419 144.75 35.494 143.009C35.837 142.454 36.965 142 38 142C39.035 142 40.163 142.454 40.506 143.009ZM15.143 143.89C14.309 144.419 14.172 144.988 14.788 145.369C15.34 145.71 16.048 145.316 16.364 144.494C17.026 142.767 16.964 142.737 15.143 143.89ZM4.59501 145.847C4.27401 146.366 4.74801 147.073 5.64901 147.419C7.85901 148.267 8.37601 147.557 6.61301 146.094C5.75801 145.384 4.94301 145.284 4.59501 145.847ZM260.193 145.713C257.157 146.293 255.222 150.357 256.975 152.47C258.486 154.291 260.601 154.455 261.605 152.83C262.085 152.054 261.792 151.866 260.737 152.271C258.39 153.171 256.399 150.429 258 148.5C259.701 146.451 260.509 146.612 261.768 149.25C262.761 151.331 262.829 151.256 262.671 148.252C262.577 146.466 262.5 145.064 262.5 145.138C262.5 145.212 261.462 145.471 260.193 145.713ZM270.032 145.559C270.014 146.141 270.661 147.491 271.468 148.559C272.276 149.626 272.951 150.024 272.968 149.441C272.986 148.859 272.339 147.509 271.532 146.441C270.724 145.374 270.049 144.976 270.032 145.559ZM28.242 147.966C26.692 150.47 22.369 150.644 19.786 148.306C18.076 146.759 17.969 146.756 18.549 148.268C19.389 150.455 22.409 151.334 26.471 150.571C29.007 150.096 29.916 150.338 30.408 151.62C30.759 152.536 31.326 153.008 31.666 152.667C32.006 152.327 31.819 151.475 31.25 150.774C30.681 150.073 30.054 148.697 29.858 147.716C29.53 146.085 29.393 146.106 28.242 147.966ZM12.607 150.582C11.396 153.738 12.046 158.256 14.134 161.188C15.76 163.472 16.47 163.865 17.119 162.842C18.28 161.01 18.216 159.748 17 160.5C16.435 160.849 16 160.03 16 158.618C16 157.243 15.502 155.81 14.893 155.434C14.139 154.968 14.013 155.467 14.5 157C14.987 158.533 14.861 159.032 14.107 158.566C12.89 157.814 12.641 154.1 13.634 151.512C14.161 150.139 14.582 150.336 16.127 152.68C17.15 154.231 17.99 154.943 17.993 154.261C18.001 152.901 14.954 149 13.885 149C13.516 149 12.941 149.712 12.607 150.582ZM281.57 149.887C281.269 150.374 281.692 151.329 282.511 152.009C283.75 153.038 284 152.889 284 151.122C284 148.977 282.579 148.254 281.57 149.887ZM4.03301 150.101C4.01501 150.432 5.05101 152.682 6.33601 155.101C7.62101 157.52 8.48301 160.063 8.25301 160.75C8.02201 161.438 8.47001 162 9.24701 162C10.461 162 17 169.878 17 171.341C17 172.687 7.61101 171.189 6.49701 169.665C5.82701 168.749 4.90701 168 4.45301 168C3.99801 168 4.85301 169.281 6.35301 170.847C8.65301 173.248 9.96001 173.723 14.685 173.877C17.767 173.978 20.583 174.242 20.942 174.464C21.301 174.686 22.185 174.504 22.905 174.059C23.824 173.491 23.884 173.046 23.107 172.566C22.498 172.19 22 172.414 22 173.063C22 173.938 21.652 173.956 20.658 173.131C19.92 172.519 18.948 172.351 18.498 172.759C18.048 173.166 17.972 172.988 18.329 172.363C18.686 171.738 18.308 170.671 17.489 169.991C16.67 169.311 16 168.135 16 167.378C16 166.62 15.622 166 15.159 166C13.436 166 9.16001 156.534 9.67701 153.867C9.96801 152.371 9.67001 150.914 8.98701 150.492C8.13001 149.963 7.97901 150.359 8.46001 151.875C9.33501 154.631 8.30401 154.58 5.94401 151.75C4.91101 150.512 4.05201 149.77 4.03301 150.101ZM270.04 153.452C268.469 155.345 269.036 158.002 271.309 159.393C272.752 160.276 273.402 160.117 274.527 158.603C275.302 157.559 275.651 156.245 275.303 155.682C274.955 155.119 274.279 155.716 273.801 157.009C273.027 159.1 272.765 159.194 271.429 157.857C269.678 156.107 270.437 153.308 272.835 152.673C274.331 152.277 274.335 152.22 272.872 152.116C271.977 152.052 270.703 152.653 270.04 153.452ZM23 156C21.802 158.239 23.203 162 25.235 162C26.102 162 26.093 161.693 25.2 160.8C23.627 159.227 23.659 155.304 25.25 154.662C26.192 154.282 26.201 154.138 25.285 154.079C24.617 154.036 23.589 154.9 23 156ZM27.083 154.283C27.313 154.439 28.298 155.177 29.273 155.924C30.816 157.107 30.964 157.07 30.416 155.641C30.069 154.739 29.084 154 28.226 154C27.369 154 26.854 154.127 27.083 154.283ZM32.5 155C32.84 155.55 33.316 156 33.559 156C33.802 156 34 155.55 34 155C34 154.45 33.523 154 32.941 154C32.359 154 32.16 154.45 32.5 155ZM0.503014 155.996C-0.0999862 156.972 4.55101 162 6.05801 162C6.96001 162 6.69801 159.365 5.69601 158.362C5.31301 157.98 5.00001 158.288 5.00001 159.048C5.00001 160.081 4.56001 159.989 3.25001 158.678C1.71901 157.147 1.68801 156.809 3.00001 155.979C4.29001 155.163 4.26301 155.028 2.80901 155.015C1.87901 155.007 0.841014 155.448 0.503014 155.996ZM35.032 158.615C35.049 159.102 35.724 160.374 36.532 161.441C39.244 165.027 38.033 165.424 34.583 162.08L31.165 158.768L28.833 160.949L26.5 163.131L29.267 162.084C31.736 161.15 32.452 161.414 35.9 164.529C39.646 167.913 40.586 169.594 42.873 177L43.954 180.5L43.434 176.764C43.148 174.709 43.403 172.116 44 171.001C44.741 169.615 44.764 168.424 44.073 167.237C43.222 165.776 43.043 165.978 42.946 168.5C42.835 171.401 42.764 171.352 40.779 167C38.693 162.428 34.974 157.002 35.032 158.615ZM278.64 162C278.208 164.475 277.632 167.4 277.361 168.5C276.962 170.124 277.064 170.218 277.906 169C278.788 167.725 279.211 167.876 280.722 170C281.7 171.375 282.502 173.127 282.505 173.894C282.513 176.056 285.695 177.705 287.117 176.283C288.012 175.388 287.759 175.25 286.043 175.699C284.229 176.173 283.87 175.922 284.174 174.393C284.382 173.347 283.653 171.764 282.545 170.855C281.115 169.681 280.381 167.532 279.984 163.355L279.427 157.5L278.64 162ZM261 162.393C261 162.609 261.698 163.054 262.552 163.382C263.442 163.723 263.843 163.555 263.493 162.989C262.906 162.038 261 161.583 261 162.393ZM46.75 163.662C48.338 164.303 48.367 167.233 46.8 168.8C45.907 169.693 45.898 170 46.765 170C47.405 170 48.357 169.201 48.88 168.224C49.968 166.19 48.597 162.954 46.7 163.079C45.819 163.137 45.833 163.292 46.75 163.662ZM265.558 163.775C264.266 165.067 265.18 165.864 267.75 165.688C270.25 165.517 270.487 165.795 270.353 168.745C270.272 170.53 270.61 171.741 271.103 171.436C271.596 171.131 272 172.034 272 173.441C272 175.318 271.476 176 270.035 176C268.955 176 267.565 176.945 266.947 178.1C266.141 179.605 265.137 180.068 263.403 179.737C261.449 179.363 261.2 179.536 262.114 180.637C263.635 182.47 264.645 182.355 266.909 180.091C267.959 179.041 269.608 178.028 270.574 177.841C271.539 177.653 273.144 176.041 274.14 174.258C275.237 172.294 275.491 171.112 274.784 171.258C274.143 171.391 273.433 170.6 273.206 169.5C272.453 165.847 267.324 162.009 265.558 163.775ZM20.015 166.25C20.024 167.488 20.509 169.175 21.094 170C21.924 171.172 22.061 170.9 21.717 168.75C21.475 167.238 21.691 166 22.198 166C22.704 166 22.84 165.55 22.5 165C21.405 163.228 20 163.935 20.015 166.25ZM24 166.483C24 166.813 24.956 168.077 26.123 169.292L28.247 171.5L27.118 169.306C26.001 167.134 24 165.323 24 166.483ZM256.655 168.829C255.745 169.835 255 171.152 255 171.756C255 173.2 260.131 177.218 260.903 176.377C261.231 176.019 260.929 175.523 260.232 175.274C256.093 173.797 255.277 169 259.166 169C260.24 169 260.84 168.55 260.5 168C259.596 166.537 258.52 166.768 256.655 168.829ZM9.00001 169C10.958 170.266 12.282 170.266 11.5 169C11.16 168.45 10.121 168.007 9.19101 168.015C7.73401 168.029 7.70701 168.165 9.00001 169ZM34.42 169.13C33.993 169.821 34.261 170.066 35.111 169.76C35.875 169.486 37.288 169.947 38.25 170.785C40.201 172.485 40.686 171.086 38.8 169.2C37.29 167.69 35.329 167.659 34.42 169.13ZM262.57 170.887C261.817 172.105 264.665 174.325 265.956 173.527C267.727 172.432 267.109 170 265.059 170C263.991 170 262.871 170.399 262.57 170.887ZM24.4 171.729C24.781 172.405 24.611 173.858 24.023 174.957C23.167 176.556 23.238 176.846 24.376 176.409C25.158 176.109 26.138 176.414 26.553 177.086C27.037 177.868 26.893 178.052 26.155 177.595C25.52 177.203 25 177.407 25 178.048C25 178.689 25.675 178.955 26.5 178.638C27.414 178.288 28 178.637 28 179.531C28 180.339 28.45 181 29 181C29.55 181 30 180.789 30 180.53C30 179.693 25.843 172.53 24.759 171.5C24.043 170.82 23.928 170.893 24.4 171.729ZM276.975 173.565C276.439 174.976 276 177.118 276 178.325C276 179.533 274.85 181.761 273.445 183.276C271.127 185.776 270.744 185.887 269.326 184.469C267.908 183.051 267.587 183.064 265.875 184.613C264.837 185.552 264.277 186.586 264.631 186.911C264.984 187.235 265.475 186.938 265.72 186.25C266.499 184.069 269.293 184.77 268.71 187C267.979 189.795 268.675 189.525 272.783 185.417L276.366 181.834L278.161 184.167C279.148 185.45 279.966 186.893 279.978 187.372C279.99 187.852 280.694 187.669 281.542 186.965C282.638 186.055 283.395 185.995 284.155 186.755C285.544 188.144 284.215 190.296 282.399 189.6C281.629 189.304 281 189.53 281 190.101C281 190.672 282.012 190.995 283.25 190.82C284.898 190.585 285.5 189.831 285.5 188C285.5 185.916 285.058 185.529 282.841 185.676C279.292 185.911 277.506 181.78 278.446 175.514C279.193 170.529 278.486 169.592 276.975 173.565ZM33.583 173.356C33.951 174.316 35.532 175.356 37.097 175.669C38.709 175.992 40.21 177.085 40.562 178.194C40.903 179.27 41.416 179.918 41.701 179.633C41.985 179.348 41.621 177.765 40.891 176.116C39.876 173.822 39.258 173.371 38.263 174.197C37.303 174.993 36.433 174.796 34.938 173.444C33.084 171.766 32.97 171.759 33.583 173.356ZM31 182C31 182.55 31.477 183 32.059 183C32.641 183 32.84 182.55 32.5 182C32.16 181.45 31.684 181 31.441 181C31.198 181 31 181.45 31 182ZM43.433 185.682C44.18 188.958 44.6 189.678 44.833 188.081C45.244 185.259 44.241 181 43.164 181C42.726 181 42.847 183.107 43.433 185.682ZM274.423 189.5C273.557 194.226 273.632 194.999 274.958 194.994C276.15 194.989 276.518 193.74 276.581 189.494C276.625 186.472 276.384 184 276.046 184C275.707 184 274.977 186.475 274.423 189.5ZM26.667 185.667C25.399 186.935 26.002 188.243 27.342 187.131C28.846 185.883 30 186.6 30 188.783C30 189.741 29.321 190.056 28 189.71C26.9 189.423 26 189.595 26 190.094C26 191.481 30.772 191.171 31.282 189.75C32.308 186.888 28.667 183.666 26.667 185.667ZM15.313 187.5C15.422 188.6 16.522 189.944 17.756 190.487C18.99 191.03 20 191.818 20 192.237C20 192.657 20.408 193 20.906 193C21.404 193 21.312 191.941 20.701 190.647C19.997 189.154 18.968 188.457 17.887 188.74C16.837 189.014 15.977 188.478 15.649 187.343C15.187 185.748 15.142 185.769 15.313 187.5ZM248.086 194.392C242.281 201.687 241.461 204.536 245.622 202.954C247.46 202.255 248.655 202.299 249.622 203.101C251.31 204.502 251.4 203.613 249.824 201.091C248.8 199.45 248.463 199.394 247.205 200.652C246.411 201.446 245.545 201.878 245.279 201.612C244.595 200.929 247.836 196.5 249.019 196.5C249.559 196.5 250.032 196.05 250.072 195.5C250.112 194.95 251.259 193.037 252.623 191.25C257.276 185.149 253.188 187.981 248.086 194.392ZM162.568 193.5C161.1 195.425 159.359 197.003 158.699 197.007C158.04 197.011 156.499 198.473 155.276 200.257C154.053 202.041 151.274 205.377 149.101 207.672C146.062 210.882 145.496 211.976 146.647 212.418C147.47 212.734 149.686 211.816 151.572 210.377C154.853 207.874 155 207.851 155 209.822C155 212.682 156.785 213.519 157.179 210.843C157.355 209.641 158.063 208.471 158.751 208.245C159.516 207.993 159.781 208.408 159.433 209.315C159.12 210.131 159.344 211.095 159.932 211.458C160.519 211.821 161 211.615 161 211C161 210.386 162.302 208.222 163.894 206.191C165.689 203.902 167.039 200.715 167.448 197.8C167.946 194.253 168.617 192.939 170.186 192.441C171.825 191.921 171.972 191.596 170.882 190.906C168.073 189.127 165.226 190.015 162.568 193.5ZM22.872 195.339C24.112 196.839 23.854 197 20.206 197C17.984 197 15.99 197.531 15.773 198.18C15.542 198.873 14.636 199.074 13.577 198.668C12.02 198.07 11.96 197.74 13.137 196.238C14.367 194.67 14.331 194.633 12.771 195.855C11.448 196.892 11.28 197.655 12.056 199.105C13.27 201.372 15.835 201.593 16.638 199.5C17.768 196.556 22.794 197.769 27.522 202.127C32.283 206.515 33.095 208.081 30.25 207.384C29.288 207.148 27.15 207.862 25.5 208.971C23.85 210.08 22.976 210.99 23.559 210.993C24.141 210.997 25.467 210.379 26.505 209.62C29.281 207.59 33.359 209.381 37.518 214.457C39.433 216.794 41 218.907 41 219.152C41 219.398 39.538 219.434 37.75 219.233C35.292 218.957 34.193 219.372 33.242 220.934C32.549 222.07 32.389 223 32.885 223C33.38 223 34.045 222.325 34.362 221.5C35.389 218.822 39.802 219.83 44.217 223.75L48.441 227.5L45.22 223.053C41.478 217.885 40.954 214 44 214C45.1 214 46 214.45 46 215C46 216.175 50.658 216.363 51.366 215.216C51.633 214.785 50.673 214.448 49.234 214.466C47.453 214.489 46.439 213.861 46.059 212.5C45.705 211.232 44.561 210.44 42.936 210.337C40.605 210.189 40.413 210.462 40.822 213.337L41.272 216.5L39.034 214.502C37.802 213.404 36.167 211.29 35.4 209.806C34.632 208.322 32.841 205.853 31.42 204.319C29.999 202.786 28.146 200.362 27.302 198.933C26.458 197.505 24.807 195.738 23.634 195.007C21.693 193.799 21.624 193.829 22.872 195.339ZM34.334 196.25C33.903 196.938 33.488 199.3 33.411 201.5C33.335 203.7 33.464 204.515 33.698 203.311C33.946 202.031 34.999 200.994 36.233 200.811C37.394 200.64 38.525 199.825 38.748 199C39.084 197.751 38.989 197.734 38.177 198.896C37.132 200.391 34 199.743 34 198.031C34 197.065 35.438 196.579 37.324 196.906C37.778 196.985 37.864 196.588 37.515 196.025C36.658 194.637 35.285 194.734 34.334 196.25ZM263 197.5C262.248 198.406 262.167 199 262.794 199C263.366 199 264.04 198.438 264.292 197.75C264.65 196.772 265.029 196.763 266.033 197.708C267.075 198.689 267.075 199.204 266.035 200.458C265.331 201.306 265.205 202 265.755 202C266.305 202 267.315 201.325 268 200.5C268.993 199.303 268.993 198.697 268 197.5C267.315 196.675 266.19 196 265.5 196C264.81 196 263.685 196.675 263 197.5ZM273.396 199.632C273.011 201.209 271.848 203.593 270.813 204.929C269.164 207.057 269.111 207.539 270.387 208.816C271.189 209.618 272.555 210.001 273.422 209.668C275.13 209.013 275.58 205.476 274.074 204.546C273.51 204.197 273.503 202.731 274.057 200.803C274.557 199.059 274.77 197.437 274.532 197.198C274.293 196.959 273.782 198.055 273.396 199.632ZM278.384 198.744C279.42 199.959 280.677 200.7 281.177 200.39C281.678 200.081 282.816 200.429 283.706 201.164C285.078 202.296 285.25 202.271 284.834 201C284.564 200.175 283.254 199.344 281.922 199.154C280.59 198.964 278.825 198.297 278 197.671C277.175 197.046 277.348 197.529 278.384 198.744ZM41.476 201.075C40.53 204.055 41.317 204.287 42.666 201.427C43.296 200.092 43.434 199 42.973 199C42.512 199 41.838 199.934 41.476 201.075ZM47.036 200.428C48.572 201.926 54 201.501 54 199.883C54 198.741 53.301 198.769 50.995 200.003C49.743 200.673 48.916 200.673 48.502 200.003C48.161 199.451 47.362 199 46.727 199C45.997 199 46.111 199.526 47.036 200.428ZM234.605 200.586C234.271 201.458 234.442 202.921 234.986 203.836C235.8 205.207 235.933 205.06 235.737 203C235.556 201.088 235.97 200.5 237.5 200.5C238.6 200.5 239.387 201.063 239.25 201.75C238.984 203.081 240.23 203.437 241.325 202.342C242.44 201.227 239.882 199 237.485 199C236.236 199 234.94 199.714 234.605 200.586ZM258.183 203.25C258.101 203.938 257.769 206.075 257.446 208C257.025 210.507 257.143 211.088 257.863 210.048C258.416 209.249 258.646 208.237 258.375 207.798C258.104 207.359 258.359 207 258.941 207C259.533 207 260 209.034 260 211.618C260 215.672 260.488 216.724 264 220.235C266.2 222.435 268 225.082 268 226.118C268 229.041 266.013 228.336 264.85 225C264.275 223.35 263.37 222 262.838 222C262.307 222 262.888 223.808 264.131 226.018C266.555 230.332 268.298 230.724 268.832 227.077C269.337 223.626 267.248 219.578 263.958 217.634C261.502 216.184 261 215.239 261 212.068C261 207.275 259.974 202 259.042 202C258.652 202 258.266 202.563 258.183 203.25ZM279.872 203.25C281.382 205.175 284 205.613 284 203.941C284 203.359 283.53 203.172 282.956 203.527C282.382 203.882 281.145 203.571 280.206 202.836C278.669 201.633 278.636 201.674 279.872 203.25ZM21.607 206.582C20.623 209.146 20.906 209.511 22.348 207.538C23.09 206.524 24.215 206.015 24.848 206.406C25.482 206.798 26 206.641 26 206.059C26 204.385 22.28 204.827 21.607 206.582ZM41.02 206.476C40.231 207.426 40.155 208 40.819 208C42.027 208 43.436 206.103 42.743 205.409C42.491 205.158 41.716 205.638 41.02 206.476ZM46.323 206.601C45.47 208.823 48.134 210.294 49.868 208.56C50.621 207.807 50.932 206.699 50.559 206.096C49.553 204.468 47.026 204.769 46.323 206.601ZM54 206C54 206.55 54.45 207 55 207C55.55 207 56 206.55 56 206C56 205.45 55.55 205 55 205C54.45 205 54 205.45 54 206ZM240.635 207.434C239.736 208.806 239 210.395 239 210.965C239 211.534 238.55 212 238 212C237.45 212 237 212.477 237 213.059C237 213.641 237.45 213.84 238 213.5C238.55 213.16 239.021 213.471 239.047 214.191C239.073 214.911 239.962 213.277 241.023 210.559C243.204 204.971 243.052 203.745 240.635 207.434ZM249.487 206.021C249.095 206.655 247.925 206.952 246.887 206.681C244.713 206.112 244.299 207.517 246.403 208.324C247.996 208.936 251.84 206.507 250.849 205.515C250.492 205.159 249.879 205.386 249.487 206.021ZM273.81 206.75C273.404 208.858 271.629 208.725 271.177 206.553C270.988 205.647 271.539 205 272.5 205C273.53 205 274.02 205.655 273.81 206.75ZM254.278 209.25C253.746 209.938 253.005 211.351 252.632 212.391C252.078 213.938 252.212 214.069 253.369 213.109C254.147 212.463 255.015 211.049 255.298 209.967C255.895 207.687 255.631 207.502 254.278 209.25ZM53.078 213.75C53.805 214.713 55.515 216.733 56.877 218.24C59.27 220.886 59.184 223.584 56.783 221.183C55.104 219.504 52.322 219.718 51.607 221.582C50.622 224.15 50.907 224.51 52.355 222.529C53.185 221.394 54.348 220.92 55.355 221.306C57.268 222.04 57.599 225.993 55.75 226.015C54.765 226.027 54.769 226.201 55.768 226.836C56.466 227.278 57.447 229.071 57.948 230.82C58.67 233.336 58.562 234 57.43 234C56.644 234 56 233.1 56 232C56 230.9 55.592 230 55.094 230C54.595 230 54.408 230.843 54.677 231.874C55.098 233.485 54.61 233.733 51.203 233.644C48.148 233.564 47.345 233.192 47.701 232.02C48.048 230.88 47.803 230.937 46.721 232.25C45.907 233.239 43.914 234 42.14 234C40.413 234 39 234.45 39 235C39 235.55 39.359 236 39.797 236C40.235 236 42.271 239.262 44.321 243.25C48.737 251.841 50.716 254.618 51.711 253.623C52.113 253.22 51.934 252.577 51.313 252.194C50.693 251.81 48.304 248.01 46.006 243.748L41.826 236L47.413 235.889C50.486 235.828 53.9 235.778 55 235.778C60.854 235.778 60.572 233.875 58.383 258.596C57.844 264.677 57.851 264.696 60.982 265.993C63.291 266.949 67.083 267.114 75.311 266.617C96.034 265.366 100.348 265.455 99.793 267.12C99.04 269.381 91.33 272.706 85.247 273.393C78.86 274.115 41.053 274.387 40.382 273.716C40.036 273.369 45.433 265.646 49.966 260C51.07 258.625 51.979 257.055 51.987 256.511C52.005 255.187 45.934 262.214 41.343 268.831C38.331 273.173 37.91 274.328 39.072 275.055C41.5 276.573 84.415 276.043 90.653 274.418C93.647 273.638 96.962 273 98.017 273C99.211 273 99.743 272.493 99.423 271.66C99.14 270.923 99.604 269.743 100.454 269.038C101.305 268.332 102 266.685 102 265.378C102 262.589 102.316 262.506 105.354 264.496C108.222 266.376 120 267.75 120 266.205C120 265.529 118.686 265.339 116.48 265.697C113.482 266.183 113.055 266.021 113.6 264.601C114.155 263.152 113.914 263.082 111.758 264.064C109.776 264.967 108.627 264.859 106.046 263.524C104.268 262.605 102.968 261.715 103.157 261.548C104.167 260.65 119 259.948 119 260.798C119 261.331 118.007 262.026 116.794 262.344C115.58 262.661 114.891 263.224 115.262 263.596C115.634 263.967 117.061 263.535 118.434 262.635C121.186 260.832 125.55 260.463 126.473 261.956C126.798 262.482 127.722 262.66 128.526 262.352C129.331 262.043 129.74 261.388 129.435 260.895C129.131 260.403 131.148 260 133.918 260C138.329 260 139.166 260.341 140.668 262.75C143.245 266.884 147.225 270.606 149.75 271.244C152.542 271.95 152.563 271.563 149.882 268.882C148.204 267.204 148.042 266.592 149.103 265.936C149.839 265.481 150.113 264.78 149.711 264.377C149.308 263.975 148.374 264.474 147.634 265.485C146.061 267.637 143 266.915 143 264.392C143 263.472 142.212 262.123 141.25 261.392C139.672 260.194 139.8 260.06 142.55 260.032C144.227 260.014 146.121 260.521 146.758 261.158C147.622 262.022 148.262 262.028 149.282 261.181C150.25 260.378 152.956 260.304 158.574 260.927C162.966 261.415 168.729 261.431 171.5 260.963C179.332 259.641 180.475 259.723 179 261.5C178.315 262.325 176.965 263 176 263C175.035 263 173.685 263.675 173 264.5C172.315 265.325 171.98 266 172.255 266C173.78 266 179.851 262.884 180.982 261.521C181.89 260.427 183.509 260.039 186.14 260.284C189.686 260.615 192.889 262 190.108 262C189.434 262 189.196 262.508 189.579 263.128C190.056 263.9 190.565 263.742 191.188 262.628C192.339 260.572 194.136 260.481 193.355 262.518C192.236 265.433 195.174 270.019 199.887 272.716C202.424 274.168 204.677 275.49 204.893 275.654C205.108 275.818 204.666 276.75 203.91 277.726C202.769 279.197 202.918 279.172 204.784 277.58C206.488 276.125 208.304 275.718 212.267 275.904C227.7 276.625 248 276.144 248 275.057C248 274.488 241.026 274.248 230.462 274.451C220.817 274.637 211.479 274.406 209.712 273.937C207.946 273.468 205.284 272.837 203.797 272.535C199.966 271.756 196.098 268.025 195.413 264.446L194.828 261.392L212.664 261.548C230.586 261.705 235 262.229 235 264.2C235 264.929 230.978 265.077 222.25 264.669C198.056 263.536 197 263.541 197 264.772C197 265.197 200.037 265.598 203.75 265.664C207.463 265.729 215.03 266.119 220.566 266.53C231.033 267.306 237.302 266.262 238.335 263.569C238.814 262.321 238.403 259.821 235.977 249.236C234.72 243.751 234.745 241.031 236.084 237.188L237.168 234.078L246.651 234.136C255.351 234.19 256.021 234.331 254.768 235.847C254.017 236.756 252.315 239.975 250.987 243C249.659 246.025 247.329 250.366 245.809 252.647C243.408 256.25 243.241 256.955 244.53 258.025C245.346 258.702 246.573 260.267 247.257 261.502C250.281 266.966 252.966 272.362 252.743 272.526C252.609 272.625 251.6 273.208 250.5 273.822C248.775 274.786 249.082 274.943 252.739 274.97L256.978 275L252.862 268.25C250.599 264.538 247.895 260.294 246.855 258.821C244.979 256.161 244.983 256.113 247.442 252.321C248.805 250.219 251.513 246.846 253.46 244.824C255.6 242.601 257 240.153 257 238.633C257 237.25 257.457 235.835 258.016 235.49C258.575 235.144 258.774 234.443 258.457 233.931C257.511 232.399 259.736 232.879 261.429 234.571C262.691 235.834 263 235.868 263 234.746C263 233.977 261.918 232.332 260.595 231.089L258.189 228.829L257.527 230.914C256.73 233.425 254.642 233.752 255.385 231.25C255.671 230.287 256.2 228.262 256.561 226.75C256.922 225.238 257.666 224 258.215 224C258.765 224 258.96 224.661 258.651 225.468C258.341 226.275 258.467 227.17 258.93 227.457C259.811 228.001 260.963 224.782 260.986 221.71C260.998 220.174 260.61 220.281 258.26 222.46C256.753 223.857 255.152 225 254.701 225C254.251 225 254.088 225.338 254.339 225.75C254.591 226.162 253.492 228.058 251.898 229.962C250.304 231.866 249 232.875 249 232.204C249 231.255 248.547 231.264 246.969 232.242C245.316 233.266 244.782 233.248 244.094 232.143C243.506 231.198 243.043 231.122 242.566 231.893C241.783 233.16 237 233.416 237 232.191C237 231.746 237.626 230.526 238.392 229.479C239.574 227.862 240.025 227.776 241.392 228.91C242.343 229.7 243 229.814 243 229.19C243 228.61 242.149 227.865 241.108 227.534C238.889 226.83 237.833 223.6 238.655 220.03C239.181 217.746 239.104 217.668 237.869 219.231C236.921 220.431 236.051 220.68 235.04 220.042C233.794 219.257 233.868 218.782 235.54 216.811L237.5 214.5L235.295 216.365C233.576 217.818 232.252 218.075 229.295 217.528C222.767 216.323 184.311 215.814 186 216.956C186.851 217.531 195.067 218.027 205 218.103C214.625 218.176 223.85 218.58 225.5 219C227.15 219.42 227.686 219.817 226.691 219.882C224.093 220.052 225.67 222 228.405 222C231.615 222 237 224.865 237 226.573C237 228.328 236.976 228.328 233.404 226.574C229.228 224.523 223 223.514 223 224.889C223 225.5 224.548 226 226.441 226C228.334 226 230.16 226.45 230.5 227C230.84 227.55 231.965 228 233 228C235.174 228 236.411 229.526 235.47 231.049C235.068 231.699 234.381 231.748 233.661 231.179C233.022 230.674 230.7 229.986 228.5 229.65C224.374 229.02 225.077 229.534 231.75 232.028C235.528 233.44 235.891 234.735 232.829 235.868C231.391 236.4 231.053 236.915 231.829 237.394C232.473 237.792 233 238.968 233 240.007C233 241.679 232.649 241.774 229.949 240.832C228.271 240.247 226.631 240.035 226.306 240.361C225.98 240.686 226.566 241.221 227.607 241.549C230.996 242.615 232.494 243.686 232.805 245.264C233.058 246.546 232.497 246.676 229.563 246.014C227.511 245.551 226.247 245.591 226.566 246.107C226.87 246.598 227.907 247 228.87 247C230.754 247 235 250.473 235 252.014C235 252.586 234.001 252.571 232.435 251.975C229.89 251.008 224.263 250.596 225.106 251.439C225.347 251.681 226.819 252.109 228.375 252.392C231.068 252.88 236 255.536 236 256.498C236 256.747 234.537 256.672 232.75 256.331C229.322 255.679 229.493 256.558 233.153 258.399C234.357 259.005 235.563 260.175 235.834 261C236.244 262.251 236.066 262.286 234.762 261.21C233.633 260.278 226.84 259.765 210.349 259.367C176.783 258.555 118.692 258.53 93.5 259.316C79.7 259.747 72.245 259.656 73.5 259.072C75.163 258.297 74.879 258.129 71.809 258.07C69.779 258.032 67.84 258.45 67.5 259C67.16 259.55 65.874 260 64.641 260C63.408 260 61.868 260.533 61.217 261.183C59.432 262.968 58.507 261.314 59.564 258.23C60.209 256.35 62.19 254.644 65.929 252.75C69.271 251.057 70.565 250 69.294 250C68.158 250 65.94 250.669 64.364 251.488C60.989 253.241 59.541 251.492 62.612 249.371C63.651 248.655 65.044 247.603 65.708 247.034C66.372 246.465 67.61 246 68.458 246C69.306 246 70 245.55 70 245C70 243.651 69.42 243.732 65.857 245.574C61.677 247.736 61.073 246.577 64.51 242.99C66.085 241.345 66.867 240 66.246 240C65.626 240 64.84 240.45 64.5 241C63.569 242.506 62 242.2 62 240.513C62 239.694 63.8 237.889 66 236.5C68.2 235.111 70 233.767 70 233.512C70 232.846 64.805 234.917 63.259 236.2C62.54 236.797 61.641 236.974 61.261 236.595C60.03 235.363 62.571 232.624 67.087 230.314C69.514 229.072 70.726 228.044 69.78 228.028C68.835 228.013 66.458 228.9 64.5 230C60.293 232.363 60 232.407 60 230.68C60 229.954 62.341 228.154 65.202 226.68C68.194 225.139 69.574 224.002 68.452 224.004C67.378 224.006 64.987 224.93 63.137 226.058C61.288 227.185 59.536 227.869 59.245 227.578C57.594 225.927 67.261 220 71.604 220C72.83 220 73.994 219.517 74.191 218.926C74.388 218.335 77.463 217.548 81.025 217.177L87.5 216.502L77 215.932C68.097 215.449 66.196 215.616 64.5 217.032C60.496 220.376 59.871 220.363 56.891 216.878C55.304 215.02 54.004 213.162 54.002 212.75C54.001 212.338 53.495 212 52.878 212C52.124 212 52.19 212.575 53.078 213.75ZM255 213.559C255 214.416 255.45 214.84 256 214.5C256.55 214.16 257 213.459 257 212.941C257 212.423 256.55 212 256 212C255.45 212 255 212.702 255 213.559ZM162 213.693C162 214.355 159.579 214.819 155.854 214.872C145.983 215.01 147.767 215.991 158.083 216.096C163.262 216.149 171.325 216.332 176 216.503C181.199 216.693 183.723 216.489 182.5 215.977C181.4 215.517 176.877 215.109 172.45 215.07C167.613 215.028 163.921 214.521 163.2 213.8C162.398 212.998 162 212.962 162 213.693ZM102.5 215C96.455 215.418 101.873 215.679 119 215.796C134.083 215.898 145.113 215.573 146 215C147.659 213.928 118.008 213.928 102.5 215ZM256.184 216.946C255.34 218.854 254.369 219.695 253.429 219.334C252.409 218.943 252.161 219.257 252.596 220.389C252.936 221.275 253.503 221.994 253.857 221.988C254.511 221.975 259 215.452 259 214.514C259 212.944 257.309 214.405 256.184 216.946ZM243 216.348C243 217.128 243.787 218.045 244.75 218.384C245.712 218.724 247.175 219.299 248 219.663C249.305 220.239 249.316 220.102 248.082 218.608C245.856 215.911 243 214.641 243 216.348ZM67.5 217C67.16 217.55 66.432 218 65.882 218C65.332 218 65.16 217.55 65.5 217C65.84 216.45 66.568 216 67.118 216C67.668 216 67.84 216.45 67.5 217ZM29.965 218.542C28.959 219.754 28.946 220.344 29.902 221.292C30.855 222.238 30.975 222.122 30.455 220.756C29.979 219.507 30.458 218.746 32.145 218.07C33.669 217.46 33.926 217.104 32.872 217.063C31.977 217.029 30.669 217.694 29.965 218.542ZM67.729 219.604C67.397 219.936 66.534 219.972 65.813 219.683C65.015 219.364 65.252 219.127 66.417 219.079C67.471 219.036 68.061 219.272 67.729 219.604ZM63.917 220.283C63.688 220.439 62.6 221.226 61.5 222.033C59.65 223.39 59.603 223.369 60.872 221.75C61.627 220.787 62.715 220 63.289 220C63.863 220 64.146 220.127 63.917 220.283ZM241.03 222.55C240.988 224.021 243.134 226 244.771 226C246.32 226 249.493 223.16 248.762 222.428C248.499 222.166 247.716 222.638 247.02 223.476C245.343 225.497 243.335 225.405 242.08 223.25C241.519 222.287 241.047 221.972 241.03 222.55ZM82 236.441C82 244.323 82.414 250.138 83 250.5C83.617 250.881 84 249.167 84 246.028C84 242.096 84.399 240.788 85.75 240.281C88.772 239.147 89.935 236.672 89.968 231.307C89.994 227.053 89.598 225.832 87.777 224.557C86.555 223.701 84.755 223 83.777 223C82.162 223 82 224.228 82 236.441ZM185 237C185 245.152 185.396 251 185.948 251C186.469 251 187.031 248.641 187.198 245.759L187.5 240.517L190.95 245.908C192.848 248.873 194.574 250.777 194.787 250.14C194.999 249.502 193.585 246.769 191.644 244.068L188.115 239.155L190.557 237.554C194.002 235.298 193.995 228.904 190.545 225.455C185.548 220.458 185 221.599 185 237ZM204 223.32C204 223.716 205.125 226.808 206.5 230.192C208.379 234.818 209 238.164 209 243.672C209 247.891 209.424 251 210 251C210.589 251 211.006 247.407 211.015 242.25C211.024 237.187 211.637 231.815 212.471 229.5C214.176 224.769 214.371 222.653 213.027 223.483C212.492 223.814 211.529 225.978 210.887 228.292L209.72 232.5L208.003 228.692C206.335 224.996 204 221.862 204 223.32ZM101.557 226.223C100.421 227.844 100 230.939 100 237.667C100 245.87 100.256 247.186 102.32 249.585C104.582 252.216 104.704 252.24 107.252 250.57C109.145 249.33 110.17 247.434 110.974 243.686C112.102 238.425 111.503 228.95 109.839 225.75C108.509 223.191 103.479 223.478 101.557 226.223ZM121.516 225.027C121.865 225.591 122.904 225.929 123.825 225.777C125.307 225.532 125.532 226.973 125.78 238.25C125.936 245.345 126.477 251 127 251C127.523 251 128.064 245.361 128.22 238.294C128.498 225.693 128.521 225.581 131 224.893C132.676 224.428 131.419 224.166 127.191 224.1C123.108 224.035 121.106 224.362 121.516 225.027ZM144.516 225.027C144.865 225.591 145.904 225.929 146.825 225.777C148.302 225.533 148.531 226.919 148.763 237.5C149.13 254.264 150.401 255.141 151 239.043C151.495 225.721 151.525 225.579 154 224.893C155.674 224.428 154.416 224.166 150.191 224.1C146.108 224.035 144.106 224.362 144.516 225.027ZM166.221 237.25L166.5 250.5L170.75 250.807C173.265 250.989 175 250.683 175 250.057C175 249.476 173.425 249 171.5 249H168V243.5C168 238.667 168.242 238 170 238C171.1 238 172 237.55 172 237C172 236.45 171.1 236 170 236C168.267 236 168 235.333 168 231C168 226.333 168.167 226 170.5 226C171.875 226 173 225.55 173 225C173 224.45 171.412 224 169.471 224H165.942L166.221 237.25ZM87.532 226.052C88.695 227.934 88.349 235.874 87.035 237.457C84.686 240.288 84 239.055 84 232C84 226.572 84.324 225 85.441 225C86.234 225 87.175 225.473 87.532 226.052ZM108.799 228.079C110.596 231.428 109.833 244.08 107.631 247.44C104.118 252.802 102.021 249.282 101.758 237.584C101.599 230.526 101.879 228.791 103.461 227.043C105.714 224.554 107.046 224.813 108.799 228.079ZM189.965 226.934C191.581 229.955 191.25 235.69 189.418 236.393C188.548 236.727 187.648 237 187.418 237C187.188 237 187 234.3 187 231C187 224.914 188.086 223.424 189.965 226.934ZM250.149 227.667C249.406 228.472 249.005 229.338 249.257 229.59C249.509 229.842 250.293 229.352 251 228.5C252.669 226.489 251.916 225.751 250.149 227.667ZM49 230C49.825 230.533 50.95 230.969 51.5 230.969C52.05 230.969 51.825 230.533 51 230C50.175 229.467 49.05 229.031 48.5 229.031C47.95 229.031 48.175 229.467 49 230ZM254 231.5C253.293 232.352 252.49 232.823 252.215 232.548C251.94 232.273 252.293 231.352 253 230.5C253.707 229.648 254.51 229.177 254.785 229.452C255.06 229.727 254.707 230.648 254 231.5ZM225 235C225 235.55 226.238 235.968 227.75 235.93C230.187 235.867 230.272 235.762 228.5 235C225.769 233.826 225 233.826 225 235ZM254.29 242C254.002 243.1 253.353 244 252.848 244C252.341 244 252.409 243.105 253 242C253.589 240.9 254.237 240 254.442 240C254.646 240 254.577 240.9 254.29 242ZM261 241.059C261 241.641 261.45 241.84 262 241.5C262.55 241.16 263 240.684 263 240.441C263 240.198 262.55 240 262 240C261.45 240 261 240.477 261 241.059ZM64.327 255.553C62.581 256.318 60.82 257.483 60.413 258.142C59.881 259.002 60.212 259.113 61.586 258.535C62.639 258.093 65.299 257.08 67.497 256.285C69.695 255.49 71.682 254.651 71.913 254.42C72.899 253.434 67.232 254.28 64.327 255.553ZM223 255.139C223 255.612 224.125 256 225.5 256C226.875 256 228 255.827 228 255.617C228 255.406 226.875 255.018 225.5 254.755C224.125 254.492 223 254.665 223 255.139ZM101 263.035C101 264.652 100.64 264.884 99.25 264.165C97.196 263.101 89.65 263.378 78.586 264.921C69.634 266.17 60.177 265.425 61.984 263.613C62.674 262.921 69.975 262.294 81.297 261.956C91.309 261.656 99.838 261.319 100.25 261.206C100.662 261.093 101 261.916 101 263.035ZM132 263C133.958 264.266 135.282 264.266 134.5 263C134.16 262.45 133.121 262.007 132.191 262.015C130.734 262.029 130.707 262.165 132 263ZM123.427 264.479C122.367 265.28 121.95 265.944 122.5 265.953C123.986 265.977 126.526 264.192 125.898 263.565C125.599 263.265 124.487 263.677 123.427 264.479ZM161.17 264.75C160.136 266.761 160.682 269 162.206 269C162.868 269 162.826 268.495 162.088 267.606C161.195 266.53 161.297 265.846 162.537 264.606C163.42 263.723 163.677 263 163.107 263C162.537 263 161.665 263.788 161.17 264.75ZM166 264.5C166.993 265.697 166.993 266.303 166 267.5C164.124 269.761 166.417 269.302 168.5 267C170.128 265.201 170.143 265 168.655 265C167.745 265 167 264.55 167 264C167 263.45 166.495 263 165.878 263C165.102 263 165.14 263.464 166 264.5ZM184.136 264.628C184.061 265.798 184.563 267.208 185.25 267.762C186.783 268.998 191 267.582 191 265.832C191 264.874 190.733 264.867 189.8 265.8C187.848 267.752 185.178 267.202 184.706 264.75C184.291 262.595 184.267 262.59 184.136 264.628ZM152.75 264.757C151.787 264.971 151 265.564 151 266.073C151 267.245 152.084 267.232 153.971 266.039C155.767 264.903 155.125 264.229 152.75 264.757ZM104.429 268C104.429 269.996 105.133 270.534 106.264 269.402C106.982 268.685 106.069 266 105.107 266C104.734 266 104.429 266.9 104.429 268ZM117.496 270.007C116.741 271.228 119.484 272.437 120.952 271.53C121.528 271.173 122 271.31 122 271.833C122 272.355 123.094 273.058 124.43 273.393C125.767 273.729 127.571 274.713 128.439 275.582C129.307 276.45 130.576 276.97 131.259 276.736C131.942 276.503 130.169 275.125 127.321 273.675C124.472 272.225 121.858 270.579 121.512 270.019C120.703 268.71 118.301 268.703 117.496 270.007ZM135.154 270.905C134.54 271.285 136.153 272.161 138.739 272.853C144.215 274.317 143.099 275.914 136.5 276.055C133.616 276.117 133.036 276.351 134.421 276.894C136.243 277.607 136.219 277.733 133.949 279.323C132.632 280.245 131.923 281 132.373 281C132.823 281 134.386 280.155 135.846 279.122C137.306 278.089 140.448 276.919 142.828 276.521C146.708 275.873 146.967 275.665 145.326 274.516C142.088 272.248 136.303 270.194 135.154 270.905ZM110 271.826C110 272.472 110.45 273 111 273C111.55 273 112 273.686 112 274.525C112 275.421 113.244 276.299 115.016 276.653C117.432 277.136 117.805 277.529 116.894 278.628C115.348 280.491 116.35 280.352 120.497 278.129L123.988 276.259L119.432 275.745C116.598 275.426 113.954 274.366 112.438 272.942C111.097 271.682 110 271.18 110 271.826ZM154 272.5C154 273.325 153.377 274 152.615 274C151.853 274 150.468 275.163 149.537 276.584C148.606 278.004 146.319 279.805 144.454 280.584C142.077 281.577 141.24 282.462 141.655 283.543C142.143 284.815 142.736 284.623 145.029 282.448C151.346 276.458 152.633 275.437 155.448 274.179C157.786 273.135 158.096 272.673 156.948 271.947C154.863 270.628 154 270.79 154 272.5ZM160.805 271.679C159.873 271.924 159.327 272.688 159.591 273.376C159.855 274.063 159.155 275.455 158.035 276.468C156.916 277.481 156 278.798 156 279.395C156 280.646 159.899 276.453 161.758 273.201C162.451 271.99 162.901 271.052 162.758 271.116C162.616 271.18 161.737 271.433 160.805 271.679ZM102.303 274.325C103.659 275.432 103.783 275.928 102.803 276.32C101.878 276.691 101.952 276.865 103.059 276.921C103.916 276.964 105.491 276.339 106.559 275.532C108.043 274.41 108.147 274.053 107 274.018C106.175 273.993 104.375 273.72 103 273.412C100.671 272.89 100.623 272.952 102.303 274.325ZM191.25 274.22C188.951 275.329 188.2 277 190 277C190.55 277 191 276.498 191 275.883C191 275.259 191.882 274.997 193 275.29C194.1 275.577 195 275.405 195 274.906C195 274.408 195.45 274 196 274C197.486 274 197.212 275.646 195.429 277.429C194 278.857 194.003 279 195.46 279C196.342 279 197.303 278.375 197.596 277.611C197.904 276.807 198.946 276.435 200.065 276.727C203.355 277.588 202.195 275.472 198.679 274.201C194.772 272.788 194.217 272.79 191.25 274.22ZM95.604 276.59C94.672 279.018 95.857 280.147 98.084 278.955C99.8 278.036 99.865 277.722 98.595 276.452C96.755 274.612 96.356 274.631 95.604 276.59ZM177.5 276C177.84 276.55 178.568 277 179.118 277C179.668 277 179.84 276.55 179.5 276C179.16 275.45 178.432 275 177.882 275C177.332 275 177.16 275.45 177.5 276ZM170.861 277.891C172.58 279.427 174.551 280 178.111 280C182.903 280 185.177 281.854 180.75 282.151C179.512 282.234 177.15 282.445 175.5 282.62C166.932 283.53 163.668 283.346 164.5 282C164.84 281.45 166.779 280.933 168.809 280.85C172.082 280.717 172.171 280.651 169.588 280.268C167.986 280.03 165.634 280.393 164.361 281.075C162.21 282.225 162.169 282.406 163.773 283.625C165.94 285.27 172.21 285.39 173.783 283.817C174.434 283.166 175.308 282.975 175.725 283.392C176.142 283.809 175.7 284.589 174.742 285.125C172.369 286.453 172.539 289 175 289C176.1 289 177 288.564 177 288.031C177 287.499 176.251 287.35 175.336 287.701C174.191 288.141 173.905 287.962 174.42 287.129C174.832 286.463 176.03 286.192 177.084 286.527C178.506 286.978 179 286.652 179 285.265C179 283.814 180.177 283.151 184.25 282.306C187.137 281.707 189.623 281.329 189.774 281.466C190.759 282.36 188.474 285.022 187.121 284.555C185.899 284.133 185.96 284.352 187.365 285.442C189.138 286.817 189.063 286.991 185.865 288.941C183.879 290.152 183.174 290.994 184.145 290.996C186.485 291.002 190.005 287.027 191.493 282.698C192.192 280.664 192.702 279 192.626 279C192.549 279 190.97 279.435 189.116 279.967C186.733 280.65 185.122 280.582 183.622 279.736C182.455 279.077 180.825 278.466 180 278.378C179.175 278.291 177.639 277.868 176.586 277.439C175.238 276.891 174.886 277.006 175.395 277.83C176.421 279.491 174.4 279.278 171.215 277.391L168.5 275.783L170.861 277.891ZM98 277.441C98 277.684 97.55 278.16 97 278.5C96.45 278.84 96 278.641 96 278.059C96 277.477 96.45 277 97 277C97.55 277 98 277.198 98 277.441ZM209 277.923C209 278.431 207.615 280.231 205.923 281.923C204.231 283.615 203.291 285 203.834 285C205 285 210 279.262 210 277.923C210 277.415 209.775 277 209.5 277C209.225 277 209 277.415 209 277.923ZM152 280.441C152 282.167 153.856 283.5 154.817 282.463C155.192 282.058 154.935 281.524 154.244 281.278C153.553 281.031 153.242 280.418 153.553 279.915C153.864 279.412 153.641 279 153.059 279C152.477 279 152 279.648 152 280.441ZM108 281.5C108 282.333 108.889 283 110 283C111.1 283 112 282.564 112 282.031C112 281.499 111.251 281.35 110.336 281.701C109.217 282.131 108.909 281.957 109.395 281.17C109.793 280.526 109.641 280 109.059 280C108.477 280 108 280.675 108 281.5ZM201.667 280.667C201.3 281.033 201.039 282.496 201.086 283.917C201.17 286.453 201.188 286.447 202.053 283.55C202.962 280.507 202.828 279.506 201.667 280.667ZM126.792 281.724C127.784 282.085 127.813 282.52 126.919 283.597C125.224 285.64 127.401 285.319 129.273 283.25C130.742 281.626 130.663 281.491 128.178 281.377C126.705 281.309 126.081 281.465 126.792 281.724ZM182.171 288.097C180.321 291.06 181.142 291.283 183.297 288.402C184.285 287.081 184.731 286 184.287 286C183.844 286 182.892 286.944 182.171 288.097Z" fill="black"/>
</svg>
