<?xml version="1.0" standalone="no"?>
<!DOCTYPE svg PUBLIC "-//W3C//DTD SVG 20010904//EN"
 "http://www.w3.org/TR/2001/REC-SVG-20010904/DTD/svg10.dtd">
<svg version="1.0" xmlns="http://www.w3.org/2000/svg"
 width="400.000000pt" height="400.000000pt" viewBox="0 0 400.000000 400.000000"
 preserveAspectRatio="xMidYMid meet">
<metadata>
Created by potrace 1.14, written by Peter Selinger 2001-2017
</metadata>
<g transform="translate(0.000000,400.000000) scale(0.100000,-0.100000)"
fill="#000000" stroke="none">
<path d="M170 2480 l0 -150 250 0 250 0 0 -617 0 -618 162 4 c90 1 164 4 164
5 1 1 13 1017 14 1154 l0 72 660 0 660 0 0 150 0 150 -1080 0 -1080 0 0 -150z"/>
<path d="M2530 2015 l0 -615 -560 0 -561 0 2 -150 1 -150 729 0 729 0 0 373
c1 366 1 372 19 347 11 -14 59 -73 108 -132 48 -59 174 -217 278 -352 l190
-245 175 5 c196 6 200 6 200 11 0 6 -64 89 -296 385 -111 141 -207 265 -213
276 -6 11 -17 27 -23 34 -55 60 -56 50 5 130 30 40 145 186 254 324 109 138
220 279 246 312 l48 62 -203 0 -203 -1 -267 -342 c-311 -398 -319 -407 -317
-387 1 8 1 176 0 373 l-1 357 -170 0 -170 0 0 -615z"/>
<path d="M1410 1865 l0 -145 460 0 460 0 0 145 0 145 -460 0 -460 0 0 -145z"/>
</g>
</svg>
