<?xml version="1.0" encoding="utf-8"?>
<!-- Generator: Adobe Illustrator 16.0.0, SVG Export Plug-In . SVG Version: 6.00 Build 0)  -->
<!DOCTYPE svg PUBLIC "-//W3C//DTD SVG 1.1//EN" "http://www.w3.org/Graphics/SVG/1.1/DTD/svg11.dtd">
<svg version="1.1" id="Layer_1" xmlns="http://www.w3.org/2000/svg" xmlns:xlink="http://www.w3.org/1999/xlink" x="0px" y="0px"
	 width="40px" height="40px" viewBox="0 0 40 40" enable-background="new 0 0 40 40" xml:space="preserve">
<g>
	<path fill="#FF9900" d="M39.551,23.539c-1.502-2.041-5.774-0.724-7.541-0.063l0.887,2.369c1.838-0.686,4-1.057,4.592-0.801
		c0.051,0.668-1.022,2.693-2.291,4.299l1.984,1.568C38.396,29.378,41.058,25.586,39.551,23.539z"/>
	<path fill="#FF9900" d="M39.43,17.217c0-2.131-1.734-3.864-3.863-3.864h-2.599c-0.735,0-1.334-0.599-1.334-1.334
		s0.599-1.333,1.334-1.333h6.462V8.156h-6.462c-2.13,0-3.862,1.732-3.862,3.862c0,2.131,1.732,3.863,3.862,3.863h2.599
		c0.734,0,1.334,0.6,1.334,1.335s-0.6,1.335-1.334,1.335h-6.461v2.53h6.461C37.695,21.082,39.43,19.347,39.43,17.217z"/>
	<path fill="#FF9900" d="M5.065,21.082h2.599c1,0,1.911-0.387,2.598-1.016c0.688,0.629,1.598,1.016,2.599,1.016v-2.53
		c-0.735,0-1.333-0.6-1.333-1.335v-1.335v-3.863c0-2.13-1.733-3.862-3.863-3.862H2.466v2.529h5.198c0.735,0,1.334,0.598,1.334,1.333
		v1.334H5.065c-2.13,0-3.863,1.733-3.863,3.864C1.202,19.347,2.935,21.082,5.065,21.082z M5.065,15.882h3.933v1.335
		c0,0.735-0.599,1.335-1.334,1.335H5.065c-0.736,0-1.334-0.6-1.334-1.335S4.33,15.882,5.065,15.882z"/>
	<polygon fill="#FF9900" points="12.706,9.76 15.868,21.082 18.43,21.082 20.617,13.253 22.804,21.082 25.365,21.082 28.527,9.76 
		28.526,9.76 28.976,8.156 26.349,8.156 26.092,9.081 24.084,16.266 21.818,8.156 19.415,8.156 17.149,16.266 14.883,8.156 
		12.257,8.156 12.706,9.76 	"/>
	<path fill="#FF9900" d="M19.897,29.313c-11.305,0-18.153-5.913-18.221-5.972l-0.837,0.947L0,25.234
		c0.303,0.27,7.588,6.609,19.897,6.609c6.99,0,12.126-2.002,14.757-3.325l-1.4-2.128C30.768,27.602,26.147,29.313,19.897,29.313z"/>
</g>
</svg>
