<?xml version="1.0" encoding="utf-8"?>
<!-- Generator: Adobe Illustrator 16.0.0, SVG Export Plug-In . SVG Version: 6.00 Build 0)  -->
<!DOCTYPE svg PUBLIC "-//W3C//DTD SVG 1.1//EN" "http://www.w3.org/Graphics/SVG/1.1/DTD/svg11.dtd">
<svg version="1.1" id="Layer_1" xmlns="http://www.w3.org/2000/svg" xmlns:xlink="http://www.w3.org/1999/xlink" x="0px" y="0px"
	 width="40px" height="40px" viewBox="0 0 40 40" enable-background="new 0 0 40 40" xml:space="preserve">
<g>
	<path fill="#FF4785" d="M8.58,7.278l0.926,25.943l21.914,0.797V5.982L8.58,7.278z M29.673,32.207l-18.479-0.674L10.387,8.925
		l15.216-0.863v2.661l0.874-0.699l0.873,0.699V7.962l2.323-0.132V32.207z"/>
	<path fill="#FF4785" d="M20.188,13.817c1.414,0,2.563,1.15,2.563,2.563h1.747c0-2.377-1.934-4.311-4.311-4.311
		s-4.311,1.934-4.311,4.311s1.934,4.311,4.311,4.311c1.414,0,2.563,1.15,2.563,2.563c0,1.414-1.149,2.564-2.563,2.564
		c-1.413,0-2.563-1.15-2.563-2.564h-1.747c0,2.377,1.934,4.311,4.311,4.311s4.311-1.934,4.311-4.311
		c0-2.375-1.934-4.309-4.311-4.309c-1.413,0-2.563-1.15-2.563-2.564C17.624,14.967,18.774,13.817,20.188,13.817z"/>
</g>
</svg>
