<?xml version="1.0" standalone="no"?>
<!DOCTYPE svg PUBLIC "-//W3C//DTD SVG 20010904//EN"
 "http://www.w3.org/TR/2001/REC-SVG-20010904/DTD/svg10.dtd">
<svg version="1.0" xmlns="http://www.w3.org/2000/svg"
 width="700.000000pt" height="700.000000pt" viewBox="0 0 700.000000 700.000000"
 preserveAspectRatio="xMidYMid meet">
<metadata>
Created by potrace 1.14, written by Peter Selinger 2001-2017
</metadata>
<g transform="translate(0.000000,700.000000) scale(0.100000,-0.100000)"
fill="#000000" stroke="none">
<path d="M3585 6453 c-16 -2 -496 -4 -1065 -7 -569 -2 -1042 -6 -1050 -8 -122
-39 -244 -135 -309 -243 -55 -91 -62 -143 -65 -487 l-3 -307 736 0 c405 0 805
-1 889 -1 l152 0 0 -2424 0 -2424 23 -3 c18 -3 1204 -3 1229 0 4 1 9 111 10
246 l3 245 25 -47 c56 -107 244 -438 251 -443 13 -9 1363 0 1372 9 4 4 -49
105 -121 227 -211 359 -360 612 -438 741 -41 68 -74 126 -74 131 0 4 39 36 88
69 108 76 169 130 263 229 226 240 358 581 375 975 2 52 6 715 10 1474 3 759
6 1530 7 1713 2 289 0 332 -13 333 -43 2 -2270 4 -2295 2z m1381 -1057 c8 -3
10 -304 7 -1143 -2 -626 -5 -1165 -7 -1198 -9 -164 -62 -354 -134 -482 -15
-27 -58 -80 -97 -119 -106 -108 -251 -170 -437 -188 -32 -3 -83 -8 -113 -11
l-55 -6 0 1575 0 1575 78 3 c111 4 744 -1 758 -6z"/>
</g>
</svg>
